<svg width="138" height="39" viewBox="0 0 138 39" fill="none" xmlns="http://www.w3.org/2000/svg">
<path d="M0 14.6526C0.145055 13.7175 0.227944 12.7677 0.44639 11.8508C1.31499 8.20628 3.31813 5.3095 6.33666 3.10432C6.35911 3.08791 6.39019 3.08532 6.45581 3.06201C6.25809 3.41688 6.08195 3.7493 5.89113 4.07308C5.37826 4.94255 5.40589 5.85518 5.67528 6.78336C6.13203 8.35911 7.00495 9.71727 8.01515 10.9744C9.0763 12.2946 10.2281 13.5414 11.3428 14.8192C11.474 14.9695 11.6156 15.1111 11.8349 15.3442C11.1287 16.022 10.4198 16.6678 9.74977 17.3525C8.34066 18.7944 6.99631 20.2968 6.01288 22.0711C5.67441 22.6816 5.40934 23.3438 5.20126 24.0112C4.90597 24.9558 5.07693 25.8607 5.65628 26.6749C5.82292 26.9089 5.99043 27.142 6.09317 27.4502C5.52591 26.9477 4.92583 26.4772 4.39741 25.9367C1.81578 23.3015 0.351413 20.1466 0.0690738 16.4554C0.0587127 16.3138 0.0233124 16.1748 0 16.0341V14.6526Z" fill="#949EB7"/>
<path d="M16.1461 0.319824C16.994 0.467469 17.854 0.567627 18.6872 0.777438C19.3909 0.955303 20.0997 1.18929 20.7413 1.52344C22.1046 2.23403 22.4517 3.32626 21.8378 4.74228C21.23 6.14361 20.3277 7.36017 19.3175 8.48435C18.0707 9.87187 16.7583 11.1998 15.5245 12.5019C14.952 11.9743 14.4271 11.5478 13.9703 11.0573C12.3522 9.31669 10.8059 7.51473 9.70068 5.39071C9.41834 4.84848 9.19903 4.25703 9.05225 3.663C8.74659 2.42917 9.3484 1.36025 10.5762 1.01747C11.5406 0.748082 12.5405 0.6013 13.5248 0.400986C13.6776 0.369903 13.833 0.34659 13.9876 0.319824C14.7068 0.319824 15.4269 0.319824 16.1461 0.319824Z" fill="#949EB7"/>
<path d="M64.4686 4.10737H61.1418C61.0986 3.87856 61.0598 3.67479 61.0166 3.44685H68.6234C70.7465 9.34316 72.8671 15.2326 74.9876 21.1228L75.0887 21.1211C75.3227 20.452 75.5592 19.7828 75.7906 19.1128C77.5468 14.0307 79.3065 8.95031 81.0497 3.86388C81.1689 3.51679 81.3303 3.41836 81.6861 3.42095C84.0018 3.43735 86.3183 3.42958 88.6703 3.42958C88.7135 3.64457 88.7549 3.84834 88.8059 4.10046H85.0854V26.3811H88.7869V27.0701H77.9388V26.4061H81.6395V5.11844L81.5859 5.09599C78.9732 12.467 76.3605 19.8381 73.7081 27.3205C70.946 19.6913 68.2236 12.1717 65.5021 4.65305L65.4391 4.66082V26.3854H69.1241V27.0735H61.1617V26.4096H64.4694V4.10737H64.4686Z" fill="#949EB7"/>
<path d="M53.1411 15.488H41.9227V26.3774H45.638V27.076H34.7865V26.4059H38.4906V4.10891C38.2022 4.10891 37.9207 4.10891 37.6384 4.10891C36.876 4.10891 36.1127 4.10891 35.3503 4.10891C34.9295 4.10891 34.699 3.88787 34.6587 3.4458H45.518C45.5568 3.64439 45.5939 3.83693 45.6423 4.08646H41.9313V14.7195H53.1411V4.11754H49.4172C49.3714 3.88097 49.3343 3.68756 49.2903 3.45962H60.1737C60.2091 3.64611 60.2479 3.84902 60.2972 4.10546H56.5767V26.3766H60.2851V27.076H49.4275V26.4077H53.1394V15.4871L53.1411 15.488Z" fill="#949EB7"/>
<path d="M115.538 26.4539H118.326V27.0704H111.327V26.3952C112.209 26.3952 113.082 26.3728 113.954 26.4047C114.376 26.4202 114.614 26.2907 114.842 25.9186C116.913 22.5495 119.006 19.1934 121.103 15.8416C121.256 15.5972 121.255 15.4341 121.101 15.1923C118.826 11.6117 116.56 8.02502 114.302 4.43318C114.143 4.17847 113.964 4.09472 113.675 4.10422C113.071 4.12408 112.467 4.11112 111.862 4.11026C111.453 4.11026 111.228 3.8921 111.189 3.45579H121.233C121.271 3.63797 121.313 3.84087 121.364 4.09213H118.115C119.945 6.98891 121.718 9.79849 123.536 12.6763C125.342 9.81749 127.118 7.00791 128.939 4.12667H125.718C125.669 3.88059 125.629 3.67596 125.583 3.44629H132.605C132.643 3.64747 132.682 3.85037 132.731 4.1094C131.926 4.1094 131.166 4.12408 130.408 4.10163C130.109 4.09299 129.944 4.19833 129.787 4.44527C127.953 7.33514 126.111 10.2198 124.259 13.0976C124.101 13.3428 124.113 13.506 124.265 13.7461C126.863 17.8378 129.452 21.9339 132.035 26.0352C132.199 26.295 132.372 26.409 132.687 26.3995C133.46 26.3753 134.235 26.3917 135.038 26.3917V27.0756H124.954V26.4047H128.172C126.082 22.9406 124.039 19.5543 121.956 16.1006C119.798 19.5802 117.675 23.0045 115.537 26.4531L115.538 26.4539Z" fill="#949EB7"/>
<path d="M24.5231 26.9661C25.3105 25.5354 24.9488 24.1911 24.3625 22.8761C23.4334 20.79 22.0183 19.0295 20.5401 17.3173C19.9772 16.6655 19.3892 16.0334 18.7856 15.3634C18.8711 15.2728 18.9531 15.1804 19.0412 15.0932C20.8674 13.2955 22.6564 11.4599 24.018 9.27111C24.4773 8.53288 24.846 7.72731 25.1655 6.91655C25.4936 6.08335 25.5247 5.20525 25.2225 4.32715C28.247 7.14795 29.8979 10.6206 30.0801 14.7633C30.3123 20.0337 27.6824 24.5606 24.5231 26.967V26.9661Z" fill="#949EB7"/>
<path d="M98.4767 4.05088C97.2532 4.11736 96.066 4.09318 94.9073 4.26587C93.1174 4.53267 92.0001 5.75441 91.2006 7.27576C90.8552 7.93282 90.6282 8.65378 90.3665 9.35229C90.2811 9.5811 90.187 9.70457 89.8623 9.5457V3.45166H110.382V9.61218C110.129 9.72702 110.076 9.5103 110.009 9.29358C109.67 8.18753 109.232 7.12984 108.515 6.20512C107.588 5.00927 106.417 4.2391 104.869 4.18384C103.896 4.14844 102.921 4.17694 101.912 4.17694V26.385H105.612V27.0749H94.7674V26.4006H98.4767V4.05088Z" fill="#949EB7"/>
<path d="M15.337 18.0518C16.5345 19.4142 17.8055 20.7474 18.9383 22.1884C19.7681 23.2435 20.4277 24.4342 21.1349 25.5817C21.3196 25.8813 21.4232 26.2405 21.5208 26.5841C21.9007 27.9259 21.279 29.1226 19.9554 29.5655C16.8635 30.6007 13.7491 30.656 10.6279 29.7062C10.2359 29.5871 9.85682 29.3868 9.50973 29.1649C8.60918 28.5898 8.27158 27.7074 8.52025 26.6653C8.78618 25.5506 9.39489 24.6051 10.0502 23.6942C11.5172 21.654 13.2699 19.871 15.1151 18.1752C15.1453 18.1476 15.1876 18.1338 15.337 18.0518Z" fill="#949EB7"/>
<path d="M87.6909 32.288C88.9774 33.6479 90.2061 34.9456 91.5159 36.3297V32.3907C91.8241 32.3441 92.084 32.3053 92.3767 32.2612V38.4192C91.0902 37.0653 89.8538 35.7633 88.5319 34.3714V38.3406C88.2245 38.3803 87.975 38.4123 87.6909 38.4485V32.2871V32.288Z" fill="#949EB7"/>
<path d="M94.6113 38.4002V32.2949C95.492 32.3847 96.3624 32.3778 97.1809 32.579C98.4156 32.8829 99.1296 34.0494 99.1029 35.4628C99.0778 36.7795 98.2541 37.9478 97.028 38.2059C96.2544 38.3691 95.4402 38.3406 94.6113 38.4002ZM95.4514 37.5169C96.3986 37.7319 97.3389 37.3952 97.8353 36.6785C98.3413 35.9481 98.3491 34.8032 97.8535 34.0718C97.3406 33.3146 96.4271 32.9779 95.4514 33.1998V37.5178V37.5169Z" fill="#949EB7"/>
<path d="M119.996 35.7856C120.571 36.5799 121.117 37.3346 121.7 38.1401C121.415 38.2619 121.16 38.3715 120.862 38.4984C120.195 37.5418 119.533 36.592 118.822 35.5723C118.795 35.7381 118.766 35.8365 118.766 35.9349C118.76 36.567 118.733 37.2016 118.772 37.831C118.798 38.2601 118.668 38.4475 118.235 38.4026C118.152 38.394 118.066 38.4017 117.949 38.4017V32.3345C118.608 32.3785 119.257 32.3638 119.881 32.4804C120.597 32.6142 121.062 33.235 121.126 33.9551C121.199 34.7771 120.906 35.3228 120.197 35.6837C120.147 35.7096 120.096 35.7346 119.997 35.7856H119.996ZM118.787 33.1642V35.2597C119.297 35.2943 119.768 35.2857 120.074 34.8324C120.337 34.4438 120.342 34.0078 120.097 33.6123C119.798 33.1323 119.321 33.0865 118.787 33.1642Z" fill="#949EB7"/>
<path d="M104.382 32.3824C104.679 32.3478 104.927 32.3185 105.23 32.2822C105.23 32.9505 105.23 33.5644 105.23 34.1792C105.23 34.9554 105.241 35.7316 105.227 36.5078C105.205 37.7192 104.525 38.3918 103.277 38.4635C102 38.5369 101.137 37.9359 101.072 36.7539C100.993 35.3103 101.053 33.8588 101.053 32.3815C101.317 32.3504 101.57 32.3211 101.874 32.2848C101.882 32.4618 101.894 32.6138 101.894 32.7649C101.896 33.9581 101.881 35.1514 101.899 36.3438C101.915 37.3462 102.367 37.7356 103.34 37.6372C103.966 37.5741 104.263 37.2909 104.345 36.6589C104.374 36.4318 104.379 36.2004 104.38 35.9708C104.383 34.7931 104.382 33.6154 104.382 32.3815V32.3824Z" fill="#949EB7"/>
<path d="M129.226 34.8132V35.624H127.306V37.5097H129.955C129.883 37.7558 129.847 37.9518 129.765 38.1262C129.721 38.2194 129.596 38.3351 129.506 38.3369C128.501 38.3515 127.496 38.3464 126.455 38.3464V32.3706C127.014 32.3706 127.583 32.3706 128.152 32.3706C128.411 32.3706 128.669 32.3706 128.928 32.3706C129.396 32.3706 129.657 32.6305 129.709 33.1503C129.049 33.1503 128.391 33.1684 127.736 33.1434C127.379 33.1296 127.248 33.2392 127.274 33.6018C127.304 33.9852 127.281 34.372 127.281 34.8141H129.227L129.226 34.8132Z" fill="#949EB7"/>
<path d="M131.499 37.4634C131.703 37.2942 131.91 37.1223 132.101 36.9643C132.365 37.1672 132.583 37.3848 132.843 37.5247C133.343 37.7932 133.942 37.5964 134.179 37.1249C134.437 36.6147 134.255 36.1208 133.687 35.8505C133.338 35.6839 132.965 35.5665 132.616 35.399C131.752 34.9845 131.424 34.3292 131.632 33.4778C131.815 32.7292 132.529 32.2181 133.391 32.2302C134.063 32.2397 134.606 32.5177 135.067 33.0634C134.89 33.2577 134.72 33.4433 134.552 33.6281C134.297 33.4528 134.079 33.2611 133.828 33.1376C133.328 32.8924 132.762 33.0651 132.554 33.4925C132.332 33.9475 132.538 34.4034 133.098 34.6642C133.501 34.8524 133.92 35.0104 134.315 35.2125C134.986 35.5561 135.222 36.1493 135.166 36.8668C135.11 37.5998 134.708 38.0946 134.027 38.3484C133.08 38.7007 132.023 38.3303 131.499 37.4643L131.499 37.4634Z" fill="#949EB7"/>
<path d="M107.235 37.472C107.439 37.3002 107.646 37.1266 107.845 36.96C108.088 37.1534 108.292 37.3606 108.536 37.5005C109.048 37.7949 109.667 37.6171 109.919 37.1361C110.19 36.6172 109.996 36.1104 109.403 35.835C109.064 35.6778 108.707 35.5613 108.368 35.4033C107.506 35.0009 107.17 34.3412 107.374 33.4865C107.557 32.7241 108.304 32.2008 109.17 32.2302C109.826 32.2526 110.355 32.5281 110.812 33.0582C110.638 33.2507 110.469 33.4381 110.308 33.6168C110.014 33.4329 109.754 33.2266 109.46 33.0971C109.106 32.9416 108.703 32.9822 108.471 33.2887C108.313 33.4968 108.236 33.85 108.286 34.1064C108.327 34.3102 108.588 34.5122 108.799 34.6314C109.173 34.842 109.592 34.9681 109.975 35.1658C110.696 35.538 111.023 36.1812 110.912 36.9436C110.8 37.7129 110.269 38.2646 109.49 38.4252C108.589 38.6109 107.765 38.269 107.235 37.4729V37.472Z" fill="#949EB7"/>
<path d="M114.785 38.3533C114.469 38.3774 114.23 38.3956 113.927 38.4189V33.1572H112.457C112.497 32.4716 112.596 32.3706 113.191 32.3706C114.165 32.3706 115.139 32.3706 116.141 32.3706V33.1365H114.785V38.3533Z" fill="#949EB7"/>
<path d="M84.5723 32.3753C84.8417 32.3459 85.0912 32.3183 85.3692 32.2881V38.3441C85.111 38.37 84.8598 38.3959 84.5723 38.4244V32.3753Z" fill="#949EB7"/>
<path d="M124.141 38.344C123.884 38.3682 123.632 38.3924 123.339 38.4209V32.3821C123.59 32.3527 123.851 32.3216 124.141 32.2871V38.344Z" fill="#949EB7"/>
<path d="M136.373 32.282V33.2741H136.181V32.282H135.828V32.1162H136.725V32.282H136.372H136.373Z" fill="#949EB7"/>
<path d="M137.819 32.3882H137.81L137.717 32.5755L137.457 33.0383L137.197 32.5755L137.104 32.3882H137.095V33.2741H136.912V32.1162H137.139L137.456 32.7051H137.466L137.783 32.1162H138V33.2741H137.817V32.3882H137.819Z" fill="#949EB7"/>
</svg>
