<svg width="120" height="37" viewBox="0 0 120 37" fill="none" xmlns="http://www.w3.org/2000/svg">
<g clip-path="url(#clip0_920_1056)">
<path d="M24.3248 4.95918C29.848 4.92503 34.4087 9.37653 34.4336 14.8276C34.4585 20.4152 30.0287 24.9319 24.4805 24.9692C18.7984 25.0064 14.3063 20.6046 14.2814 14.9797C14.2564 9.40447 18.6769 4.99333 24.3248 4.95918ZM24.3559 6.46164C19.3654 6.5113 15.8545 10.4351 15.8047 14.9114C15.7548 19.4933 19.546 23.3736 24.1534 23.4543C28.8761 23.5381 32.8168 19.7944 32.8947 15.1473C32.9757 10.3513 29.2343 6.54856 24.3559 6.45853V6.46164Z" fill="#949EB7"/>
<path d="M90.2986 24.9321C89.6475 24.9321 89.0774 24.9476 88.5073 24.9197C88.3952 24.9135 88.2488 24.7489 88.1896 24.6248C87.308 22.8119 86.4264 20.999 85.5728 19.1737C85.4077 18.8198 85.2052 18.6894 84.8096 18.6925C82.3953 18.7112 79.9779 18.7112 77.5636 18.6925C77.1929 18.6925 77.0153 18.8229 76.8627 19.1458C76.0154 20.9618 75.14 22.7653 74.2927 24.5782C74.1618 24.8576 73.9967 24.9569 73.6945 24.9445C73.1774 24.9228 72.6572 24.9383 72.084 24.9383C72.1494 24.7831 72.1868 24.6806 72.2304 24.5844C75.0964 18.5529 77.9655 12.5213 80.8315 6.49284C80.8626 6.42455 80.8813 6.34384 80.9312 6.29727C81.0246 6.20414 81.1399 6.06445 81.2427 6.06445C81.3486 6.06445 81.5012 6.19173 81.5542 6.30038C82.2084 7.66004 82.847 9.02591 83.4856 10.3918C85.6849 15.0823 87.8874 19.7728 90.0867 24.4633C90.149 24.5937 90.2051 24.7303 90.2954 24.9321H90.2986ZM84.5323 16.9293C83.4327 14.6074 82.361 12.3506 81.2396 9.98202C80.1119 12.3506 79.034 14.6136 77.9312 16.9293H84.5354H84.5323Z" fill="#949EB7"/>
<path d="M93.5849 23.4391C93.5849 23.8985 93.5756 24.2648 93.588 24.6311C93.5974 24.8546 93.5133 24.9446 93.2859 24.9384C92.9494 24.9291 92.613 24.9291 92.2765 24.9384C92.0491 24.9446 91.9588 24.8422 91.9744 24.6249C91.9806 24.538 91.9744 24.4511 91.9744 24.3641C91.9744 18.463 91.9744 12.5618 91.9744 6.66061C91.9744 6.29637 92.155 6.11426 92.5164 6.11426C93.1291 6.11426 93.4354 6.4164 93.4354 7.0207V15.3525C95.373 13.3937 97.6004 12.9126 100.086 13.7259C101.435 14.1667 102.445 15.0886 103.164 16.2993C104.51 18.5592 104.236 21.7628 101.893 23.8488C99.9867 25.5469 96.2142 26.0746 93.5818 23.436L93.5849 23.4391ZM97.9867 14.8186C95.4634 14.8186 93.4852 16.7898 93.426 19.2483C93.37 21.5051 95.1986 23.8364 97.9898 23.8395C100.513 23.8426 102.529 21.8342 102.522 19.3353C102.516 16.6501 100.329 14.7503 97.9836 14.8186H97.9867Z" fill="#949EB7"/>
<path d="M37.7511 15.7997C38.6981 14.4866 39.9099 13.6826 41.5765 13.7354C43.2837 13.7881 44.3864 14.6542 44.9534 16.3367C45.0842 16.1474 45.1683 16.0232 45.2525 15.899C45.9596 14.8374 46.8911 14.083 48.1714 13.813C50.4611 13.3287 52.4018 14.676 52.6448 16.9917C52.7757 18.2427 52.7757 19.5062 52.8006 20.7665C52.8255 22.1386 52.8068 23.5075 52.8068 24.9355C52.3738 24.9355 51.9688 24.951 51.567 24.92C51.4953 24.9138 51.3894 24.7089 51.3894 24.594C51.3738 23.6286 51.3832 22.6632 51.3801 21.6978C51.3738 20.4871 51.3707 19.2733 51.3489 18.0627C51.3427 17.7181 51.3146 17.3704 51.2492 17.0321C50.9938 15.6569 49.7259 14.8312 48.296 15.0888C46.673 15.3806 45.4799 16.613 45.3584 18.3328C45.2307 20.1674 45.24 22.0113 45.1933 23.8521C45.1839 24.1967 45.1933 24.5413 45.1933 24.9138H43.807C43.807 24.7492 43.807 24.6033 43.807 24.4605C43.807 22.3931 43.807 20.3288 43.7977 18.2614C43.7977 17.9044 43.7665 17.5443 43.7011 17.1904C43.4051 15.5576 42.0345 14.7225 40.399 15.1664C39.0065 15.5451 37.938 16.7682 37.8134 18.3328C37.6919 19.8445 37.7012 21.3687 37.6638 22.8867C37.6483 23.551 37.6638 24.2184 37.6638 24.9386C37.2464 24.9386 36.8632 24.9479 36.4832 24.9293C36.4177 24.9293 36.3336 24.8237 36.3056 24.7461C36.2745 24.6592 36.29 24.5506 36.29 24.4512C36.29 21.1359 36.29 17.8206 36.29 14.5052C36.29 14.0054 36.29 14.0054 36.7791 14.0023C37.3668 13.9982 37.6607 14.2921 37.6607 14.8839V15.7314L37.7511 15.7997Z" fill="#949EB7"/>
<path d="M65.4397 24.9169H64.0534C64.0534 24.7585 64.0534 24.6157 64.0534 24.4729C64.0534 22.4831 64.0596 20.4902 64.041 18.5004C64.0378 18.0471 63.988 17.5846 63.8852 17.1438C63.4646 15.3464 62.0815 14.8125 60.6423 15.0205C58.7638 15.2906 57.3651 16.8768 57.3059 18.786C57.2467 20.6516 57.2498 22.5173 57.2249 24.386C57.2249 24.5474 57.2249 24.7058 57.2249 24.9044H55.8511C55.8449 24.7803 55.8355 24.6499 55.8355 24.5195C55.8355 21.1545 55.8417 17.7926 55.8262 14.4276C55.8262 14.0706 55.9477 13.993 56.2748 13.9961C57.228 14.0054 57.228 13.9961 57.228 14.9522V15.9394C57.4866 15.6569 57.661 15.4582 57.8448 15.2688C58.9881 14.0799 60.3868 13.5646 62.0254 13.7602C63.7294 13.962 65.0316 15.2937 65.2839 17.091C65.3774 17.7616 65.4272 18.4445 65.4366 19.1212C65.4584 20.8906 65.4428 22.657 65.4428 24.4264V24.92L65.4397 24.9169Z" fill="#949EB7"/>
<path d="M69.7098 24.9263H68.3111V24.5631C68.3111 21.1764 68.3173 17.7928 68.3018 14.406C68.3018 14.0677 68.4108 13.9932 68.7254 13.9932C69.7098 13.9994 69.7098 13.987 69.7098 14.9617V24.9232V24.9263Z" fill="#949EB7"/>
<path d="M70.1095 11.0102C70.1126 11.631 69.6422 12.1122 69.0192 12.1277C68.3805 12.1401 67.8696 11.659 67.8634 11.0319C67.8541 10.4048 68.3494 9.89884 68.9787 9.89264C69.611 9.88643 70.1064 10.3769 70.1126 11.0133L70.1095 11.0102Z" fill="#949EB7"/>
<path d="M103.488 11.2486H104.264C104.392 11.2486 104.498 11.2672 104.579 11.3044C104.734 11.3758 104.815 11.5093 104.815 11.7049C104.815 11.8073 104.794 11.8912 104.753 11.9532C104.713 12.0184 104.653 12.0712 104.575 12.1084C104.641 12.1364 104.691 12.1705 104.725 12.214C104.759 12.2575 104.778 12.3288 104.781 12.4282L104.79 12.6548C104.79 12.72 104.8 12.7665 104.806 12.7976C104.818 12.8504 104.843 12.8876 104.881 12.9V12.9373H104.597C104.597 12.9373 104.585 12.9031 104.579 12.8814C104.575 12.8597 104.569 12.8131 104.566 12.7479L104.554 12.4654C104.547 12.3537 104.507 12.2792 104.432 12.2419C104.389 12.2202 104.323 12.2109 104.23 12.2109H103.719V12.9373H103.488V11.2393V11.2486ZM104.239 12.0277C104.345 12.0277 104.426 12.006 104.488 11.9625C104.551 11.9191 104.579 11.8415 104.579 11.7297C104.579 11.6087 104.535 11.5248 104.451 11.4814C104.404 11.4566 104.345 11.4472 104.267 11.4472H103.719V12.0277H104.239Z" fill="#949EB7"/>
<path d="M104.186 13.5888C103.36 13.5888 102.688 12.9183 102.688 12.0957C102.688 11.2731 103.36 10.6025 104.186 10.6025C105.011 10.6025 105.684 11.2731 105.684 12.0957C105.684 12.9183 105.011 13.5888 104.186 13.5888ZM104.186 10.8354C103.488 10.8354 102.921 11.4003 102.921 12.0957C102.921 12.791 103.488 13.356 104.186 13.356C104.884 13.356 105.451 12.791 105.451 12.0957C105.451 11.4003 104.884 10.8354 104.186 10.8354Z" fill="#949EB7"/>
</g>
<defs>
<clipPath id="clip0_920_1056">
<rect width="91.4" height="20.3111" fill="white" transform="translate(14.2812 4.95898)"/>
</clipPath>
</defs>
</svg>
