<svg width="120" height="37" viewBox="0 0 120 37" fill="none" xmlns="http://www.w3.org/2000/svg">
<path d="M98.3772 24.6836C98.3772 23.4252 99.3988 22.4041 100.657 22.4041C101.915 22.4041 102.935 23.4252 102.935 24.6836C102.935 25.9421 101.915 26.9624 100.657 26.9624C99.3988 26.9624 98.3772 25.9421 98.3772 24.6836Z" fill="#949EB7"/>
<path d="M25.6803 18.6469C25.6803 17.2031 25.4013 16.1319 24.8433 15.4341C24.2846 14.7369 23.4383 14.3886 22.3006 14.3886H21.0903V23.2177H22.0163C23.28 23.2177 24.2061 22.8431 24.7958 22.0912C25.3847 21.3406 25.6803 20.1922 25.6803 18.6469ZM29.9965 18.4965C29.9965 21.1269 29.2894 23.1537 27.8753 24.5764C26.4612 25.9998 24.4732 26.7115 21.9108 26.7115H16.9316V10.9497H22.2583C24.7291 10.9497 26.6366 11.5967 27.9808 12.8901C29.3244 14.1842 29.9965 16.0521 29.9965 18.4965Z" fill="#949EB7"/>
<path d="M43.7886 26.7113H47.7507V10.8835H43.7886V26.7113Z" fill="#949EB7"/>
<path d="M53.3166 20.8075C53.3166 21.8166 53.4485 22.5863 53.7117 23.1153C53.9755 23.6449 54.4174 23.9094 55.0387 23.9094C55.6534 23.9094 56.0881 23.6449 56.3414 23.1153C56.5946 22.5863 56.7206 21.8166 56.7206 20.8075C56.7206 19.8036 56.5926 19.0464 56.3361 18.5352C56.0788 18.0227 55.6403 17.7662 55.0184 17.7662C54.4102 17.7662 53.9755 18.0214 53.7117 18.5293C53.4485 19.0378 53.3166 19.797 53.3166 20.8075ZM60.7533 20.8075C60.7533 22.7301 60.2493 24.23 59.2388 25.3051C58.2291 26.3809 56.8156 26.9191 54.9985 26.9191C53.2559 26.9191 51.8688 26.369 50.8392 25.2688C49.8083 24.1686 49.2932 22.682 49.2932 20.8075C49.2932 18.8908 49.7978 17.4014 50.8083 16.3395C51.8187 15.2776 53.2355 14.7466 55.0598 14.7466C56.1871 14.7466 57.1844 14.9927 58.0484 15.4841C58.9131 15.9754 59.5806 16.6792 60.0495 17.596C60.5191 18.5115 60.7533 19.5826 60.7533 20.8075Z" fill="#949EB7"/>
<path d="M62.3267 26.7113H66.2894V14.9544H62.3267V26.7113Z" fill="#949EB7"/>
<path d="M62.3266 13.5323H66.2893V10.8828H62.3266V13.5323Z" fill="#949EB7"/>
<path d="M74.3176 23.7126C74.8525 23.7126 75.4896 23.5767 76.2329 23.307V26.2651C75.6987 26.4999 75.1909 26.6681 74.7081 26.7677C74.2253 26.8686 73.6586 26.9188 73.0103 26.9188C71.6799 26.9188 70.7209 26.5844 70.1319 25.9169C69.5456 25.2494 69.2514 24.2244 69.2514 22.8413V17.9948H67.8637V14.9554H69.2514V11.9531L73.2445 11.2585V14.9554H75.7727V17.9948H73.2445V22.5709C73.2445 23.332 73.6026 23.7126 74.3176 23.7126Z" fill="#949EB7"/>
<path d="M83.4889 23.7126C84.0238 23.7126 84.661 23.5767 85.4043 23.307V26.2651C84.8708 26.4999 84.3622 26.6681 83.8793 26.7677C83.3959 26.8686 82.8313 26.9188 82.1816 26.9188C80.8512 26.9188 79.8923 26.5844 79.3046 25.9169C78.7169 25.2494 78.4228 24.2244 78.4228 22.8413V17.9948H77.0343V14.9554H78.4228V11.9076L82.4151 11.2585V14.9554H84.9446V17.9948H82.4151V22.5709C82.4151 23.332 82.7733 23.7126 83.4889 23.7126Z" fill="#949EB7"/>
<path d="M90.4042 19.3751C90.4583 18.7314 90.6425 18.2598 90.9564 17.9584C91.2717 17.6576 91.6608 17.5072 92.1265 17.5072C92.6343 17.5072 93.0379 17.6761 93.3374 18.0164C93.6388 18.3548 93.7958 18.8079 93.8084 19.3751H90.4042ZM95.9922 16.1327C95.0503 15.2093 93.714 14.7469 91.9853 14.7469C90.1681 14.7469 88.7699 15.2779 87.7898 16.3398C86.8103 17.4017 86.3202 18.9253 86.3202 20.9107C86.3202 22.8333 86.8498 24.316 87.9065 25.3568C88.9638 26.3976 90.4484 26.9187 92.3605 26.9187C93.2787 26.9187 94.0689 26.856 94.7311 26.7314C95.3894 26.608 96.0265 26.3851 96.6445 26.0632L96.0357 23.4137C95.5866 23.5971 95.1591 23.7382 94.7555 23.8312C94.1724 23.9664 93.5327 24.0344 92.8362 24.0344C92.0724 24.0344 91.4695 23.8477 91.0276 23.4744C90.5857 23.1004 90.3502 22.5846 90.3232 21.9277H97.4056V20.1224C97.4056 18.3858 96.9347 17.0554 95.9922 16.1327Z" fill="#949EB7"/>
<path d="M35.2551 19.3751C35.3091 18.7314 35.4932 18.2598 35.8071 17.9584C36.1217 17.6576 36.5116 17.5072 36.9779 17.5072C37.4845 17.5072 37.8881 17.6761 38.1882 18.0164C38.4896 18.3548 38.646 18.8079 38.6598 19.3751H35.2551ZM40.8436 16.1327C39.9011 15.2093 38.5654 14.7469 36.8361 14.7469C35.0183 14.7469 33.6206 15.2779 32.6411 16.3398C31.6617 17.4017 31.171 18.9253 31.171 20.9107C31.171 22.8333 31.7 24.316 32.7579 25.3568C33.8146 26.3976 35.2992 26.9187 37.2114 26.9187C38.1295 26.9187 38.9196 26.856 39.5818 26.7314C40.2401 26.608 40.8773 26.3851 41.496 26.0632L40.8865 23.4137C40.4373 23.5971 40.0099 23.7382 39.6069 23.8312C39.0226 23.9664 38.3834 24.0344 37.6868 24.0344C36.9237 24.0344 36.3203 23.8477 35.8784 23.4744C35.4358 23.1004 35.201 22.5846 35.174 21.9277H42.2564V20.1224C42.2564 18.3858 41.7855 17.0554 40.8436 16.1327Z" fill="#949EB7"/>
</svg>
