<svg width="119" height="37" viewBox="0 0 119 37" fill="none" xmlns="http://www.w3.org/2000/svg">
<path d="M35.6681 7.80421H31.5713V11.901H35.6681V7.80421Z" fill="#949EB7"/>
<path d="M35.566 29.1483V14.394H31.6879V29.1483H35.566ZM61.3422 29.2941V25.6784C60.7736 25.6784 60.2925 25.6492 59.9426 25.5909C59.5343 25.5326 59.2282 25.3868 59.0241 25.1827C58.82 24.9786 58.6887 24.687 58.6158 24.308C58.5575 23.9435 58.5284 23.4624 58.5284 22.8792V17.7181H61.3422V14.394H58.5284V8.63523H54.6357V22.9083C54.6357 24.1184 54.7378 25.139 54.9419 25.9554C55.146 26.7573 55.4959 27.4133 55.977 27.909C56.4581 28.4047 57.0996 28.7546 57.8723 28.9733C58.6596 29.192 59.651 29.2941 60.8319 29.2941H61.3422ZM83.6193 29.1483V7.49805H79.7266V29.1483H83.6193ZM50.8888 15.8374C49.81 14.6711 48.2937 14.0879 46.3693 14.0879C45.4362 14.0879 44.5906 14.2774 43.8179 14.6565C43.0598 15.0355 42.4037 15.5604 41.8934 16.231L41.6747 16.508V14.394H37.8404V29.1483H41.7039V21.29V21.8295C41.7039 21.742 41.7039 21.6545 41.7039 21.567C41.7476 20.182 42.0829 19.1615 42.7244 18.5054C43.4097 17.8056 44.2407 17.4557 45.1883 17.4557C46.3109 17.4557 47.1711 17.8056 47.7397 18.4762C48.2937 19.1469 48.5853 20.0945 48.5853 21.3046V29.1337H52.5071V20.7652C52.5217 18.6658 51.9677 17.0037 50.8888 15.8374ZM77.7147 21.742C77.7147 20.6777 77.5252 19.6863 77.1607 18.7532C76.7816 17.8348 76.2568 17.0183 75.6007 16.3185C74.93 15.6187 74.1282 15.0793 73.1951 14.6856C72.262 14.292 71.2269 14.1025 70.1043 14.1025C69.04 14.1025 68.0341 14.3066 67.101 14.7002C66.1679 15.1084 65.3515 15.6479 64.6662 16.3331C63.981 17.0183 63.427 17.8348 63.0334 18.7678C62.6251 19.7009 62.4356 20.7069 62.4356 21.7712C62.4356 22.8354 62.6251 23.8414 63.0042 24.7745C63.3833 25.7076 63.9227 26.524 64.5933 27.2092C65.264 27.8945 66.095 28.4485 67.0572 28.8421C68.0195 29.2503 69.0838 29.4544 70.2209 29.4544C73.5159 29.4544 75.557 27.9528 76.7816 26.5532L73.9824 24.4246C73.3992 25.1244 71.9996 26.072 70.2501 26.072C69.1567 26.072 68.2527 25.8242 67.5675 25.3139C66.8823 24.8182 66.4158 24.1184 66.1679 23.2582L66.1242 23.127H77.7147V21.742ZM66.1533 20.3861C66.1533 19.3073 67.3926 17.4265 70.0606 17.412C72.7286 17.412 73.9824 19.2927 73.9824 20.3715L66.1533 20.3861Z" fill="#949EB7"/>
<path d="M88.0514 27.2238C87.9785 27.0489 87.8764 26.9031 87.7452 26.7718C87.614 26.6406 87.4682 26.5386 87.2933 26.4657C87.1183 26.3928 86.9288 26.3491 86.7393 26.3491C86.5351 26.3491 86.3602 26.3928 86.1852 26.4657C86.0103 26.5386 85.8645 26.6406 85.7333 26.7718C85.6021 26.9031 85.5 27.0489 85.4271 27.2238C85.3542 27.3988 85.3105 27.5883 85.3105 27.7778C85.3105 27.9819 85.3542 28.1569 85.4271 28.3318C85.5 28.5068 85.6021 28.6526 85.7333 28.7838C85.8645 28.915 86.0103 29.0171 86.1852 29.09C86.3602 29.1629 86.5497 29.2066 86.7393 29.2066C86.9434 29.2066 87.1183 29.1629 87.2933 29.09C87.4682 29.0171 87.614 28.915 87.7452 28.7838C87.8764 28.6526 87.9785 28.5068 88.0514 28.3318C88.1243 28.1569 88.168 27.9674 88.168 27.7778C88.168 27.5883 88.1243 27.3988 88.0514 27.2238ZM87.8181 28.2444C87.7598 28.3901 87.6723 28.5214 87.5703 28.6234C87.4682 28.7255 87.337 28.8129 87.1912 28.8713C87.0454 28.9296 86.8996 28.9587 86.7247 28.9587C86.5643 28.9587 86.4039 28.9296 86.2581 28.8713C86.1124 28.8129 85.9811 28.7255 85.8791 28.6234C85.777 28.5214 85.6896 28.3901 85.6312 28.2444C85.5729 28.0986 85.5438 27.9528 85.5438 27.7778C85.5438 27.6174 85.5729 27.4571 85.6312 27.3113C85.6896 27.1655 85.777 27.0343 85.8791 26.9322C85.9811 26.8302 86.1124 26.7427 86.2581 26.6844C86.4039 26.6261 86.5497 26.5969 86.7247 26.5969C86.8851 26.5969 87.0454 26.6261 87.1912 26.6844C87.337 26.7427 87.4682 26.8302 87.5703 26.9322C87.6723 27.0343 87.7598 27.1655 87.8181 27.3113C87.8764 27.4571 87.9056 27.6029 87.9056 27.7778C87.9202 27.9528 87.8764 28.0986 87.8181 28.2444ZM87.0017 27.8945C87.1183 27.8799 87.2058 27.8361 87.2787 27.7632C87.3516 27.6903 87.3953 27.5883 87.3953 27.4425C87.3953 27.2821 87.3516 27.1655 87.2495 27.078C87.1621 26.9905 87.0017 26.9468 86.8122 26.9468H86.1707V28.5943H86.4768V27.9236H86.6955L87.1037 28.5943H87.4245L87.0017 27.8945ZM86.8413 27.6612C86.7976 27.6612 86.7538 27.6612 86.6955 27.6612H86.4768V27.1946H86.6955C86.7393 27.1946 86.783 27.1946 86.8413 27.1946C86.8851 27.1946 86.9288 27.2092 86.9725 27.2238C87.0163 27.2384 87.0454 27.2675 87.06 27.2967C87.0746 27.3259 87.0892 27.3696 87.0892 27.4279C87.0892 27.4862 87.0746 27.53 87.06 27.5591C87.0308 27.5883 87.0017 27.6174 86.9725 27.632C86.9288 27.6466 86.8851 27.6612 86.8413 27.6612Z" fill="#949EB7"/>
</svg>
