<?xml version="1.0" encoding="UTF-8"?>
<svg version="1.1" xmlns="http://www.w3.org/2000/svg" width="600" height="600">
<path d="M0 0 C198 0 396 0 600 0 C600 198 600 396 600 600 C402 600 204 600 0 600 C0 402 0 204 0 0 Z " fill="#FEFEFE" transform="translate(0,0)"/>
<path d="M0 0 C5.7287763 2.0799313 9.09825646 5.66079189 12 11 C13.82065999 16.46197997 14.21068049 22.27800025 11.8359375 27.6171875 C9.19079229 31.75446591 6.65270264 35.0613739 2 37 C1.34 37 0.68 37 0 37 C-0.70949741 51.02582174 -0.70949741 51.02582174 5.125 63.25 C7.31242619 65.44499514 9.52683791 67.58257379 11.85083008 69.6328125 C15.88454417 73.57502554 17.45656911 76.32902954 17.68359375 82.03125 C17.64407938 84.18869798 17.55385339 86.34532947 17.4375 88.5 C17.293125 92.295 17.14875 96.09 17 100 C28.55 100 40.1 100 52 100 C51.95875 94.3075 51.9175 88.615 51.875 82.75 C51.87862549 80.06375488 51.87862549 80.06375488 51.88232422 77.32324219 C51.85879231 75.89774578 51.83306135 74.47228325 51.8046875 73.046875 C51.8137915 72.31162598 51.82289551 71.57637695 51.83227539 70.81884766 C51.82973519 68.39369901 51.82973519 68.39369901 51 65 C48.16843408 62.53042502 48.16843408 62.53042502 45 61 C40.50931447 56.54131461 38.81510856 53.17783011 38.625 46.875 C38.68032604 40.61624123 39.67657906 36.58305197 44 32 C49.76296313 27.4131518 54.68119092 26.24619008 62 27 C68.19320928 28.99442333 71.87215074 31.99201844 75.60546875 37.26953125 C78.16542708 42.28188663 77.81261971 47.52968197 77 53 C74.92399644 57.5372449 72.35167175 60.29415804 67.93164062 62.60229492 C64.64670657 64.77778555 64.64670657 64.77778555 64.22705078 68.66699219 C64.18681422 70.1264369 64.17723588 71.58698764 64.1953125 73.046875 C64.17488892 74.07288818 64.17488892 74.07288818 64.15405273 75.11962891 C64.1120711 77.66275788 64.1215672 80.20652685 64.125 82.75 C64.08375 88.4425 64.0425 94.135 64 100 C75.55 100 87.1 100 99 100 C98.7250872 92.83410138 98.7250872 92.83410138 98.36938477 85.67211914 C98.23706069 78.77358313 99.56414451 75.04363865 104.14916992 69.87524414 C105.62694135 68.37797962 107.11961327 66.89542632 108.6171875 65.41796875 C115.42496921 58.69263422 115.96867991 52.69961348 116.10302734 43.5534668 C116.09845281 41.36871272 116.05347954 39.18410422 116 37 C115.22914063 36.71769531 114.45828125 36.43539062 113.6640625 36.14453125 C108.76947225 34.04172342 105.01869178 29.88735904 103 25 C102.08444301 17.91001599 102.67497742 11.83282862 107 6 C110.43260805 2.40606833 113.63556045 0.17741826 118.70703125 -0.203125 C129.44077299 -0.36514374 129.44077299 -0.36514374 134 3 C140.04610643 9.17474699 141.42085242 12.93794493 141.34375 21.66015625 C140.77560027 27.18024733 138.57720967 30.78826261 134.40234375 34.37109375 C132.26658424 35.88764043 130.67006041 37 128 37 C128.06807861 37.67877197 128.13615723 38.35754395 128.20629883 39.05688477 C130.10927246 60.9494198 130.10927246 60.9494198 123.49682617 68.92749023 C120.78078227 71.75714547 117.93586183 74.40155415 115 77 C111.52459518 80.29439415 111.57296208 83.52993166 111.38085938 88.10546875 C111.34702148 89.41451172 111.34702148 89.41451172 111.3125 90.75 C111.27833984 91.63816406 111.24417969 92.52632813 111.20898438 93.44140625 C111.12671286 95.62747803 111.05749828 97.81315951 111 100 C112.11117187 99.95359375 113.22234375 99.9071875 114.3671875 99.859375 C125.55054637 99.5297867 134.79148261 100.17765332 143.3984375 108.15234375 C148.08615472 113.56036874 152.14937019 119.93880261 152.09765625 127.23046875 C152.09443359 128.03291016 152.09121094 128.83535156 152.08789062 129.66210938 C152.07951172 130.49548828 152.07113281 131.32886719 152.0625 132.1875 C152.05798828 133.03248047 152.05347656 133.87746094 152.04882812 134.74804688 C152.03705403 136.83206155 152.0191189 138.91603977 152 141 C165.45174494 141.76633746 165.45174494 141.76633746 177.09912109 135.83300781 C179.29112397 133.80192459 181.42009897 131.7346894 183.44873047 129.53979492 C188.84526051 124.18318255 188.84526051 124.18318255 192.86254883 123.54589844 C194.39431763 123.57731934 194.39431763 123.57731934 195.95703125 123.609375 C197.06884766 123.62226563 198.18066406 123.63515625 199.32617188 123.6484375 C200.47666016 123.68195313 201.62714844 123.71546875 202.8125 123.75 C203.98232422 123.76804687 205.15214844 123.78609375 206.35742188 123.8046875 C209.2391178 123.8517356 212.11913797 123.91746291 215 124 C215.17789063 123.10474609 215.17789063 123.10474609 215.359375 122.19140625 C216.61882026 117.88318191 219.74467867 114.91826431 223.26953125 112.33984375 C229.07253397 109.4923045 236.38638876 110.19215653 242.4375 112.0625 C246.34137701 115.01421189 249.79557825 118.59115649 252 123 C252.71298073 130.19091993 252.93138568 136.44679882 248.5 142.4140625 C244.00739362 147.16405779 239.28444992 149.13620107 232.875 149.4375 C226.56271075 149.38726958 222.60491948 147.20879737 218 143 C215 139 215 139 215 136 C200.99547798 135.27965521 200.99547798 135.27965521 188.8125 141.125 C187.2077495 142.74942345 185.6036625 144.37450245 184 146 C179.37173934 150.5680047 175.74969472 153.40885008 169.08984375 153.68359375 C167.0378 153.64423253 164.98659985 153.55421621 162.9375 153.4375 C159.328125 153.293125 155.71875 153.14875 152 153 C152 164.55 152 176.1 152 188 C157.6925 187.95875 163.385 187.9175 169.25 187.875 C171.04083008 187.87741699 172.83166016 187.87983398 174.67675781 187.88232422 C176.10225422 187.85879231 177.52771675 187.83306135 178.953125 187.8046875 C179.68837402 187.8137915 180.42362305 187.82289551 181.18115234 187.83227539 C183.60630099 187.82973519 183.60630099 187.82973519 187 187 C189.46957498 184.16843408 189.46957498 184.16843408 191 181 C195.27695459 176.69234957 198.56587772 174.83322573 204.625 174.6875 C210.28075869 174.75523364 214.51233025 175.43687332 219 179 C223.79692336 184.16868492 225.33333589 188.8308654 225.21484375 195.9140625 C224.58812145 201.99896628 221.57000587 206.17394857 217 210 C211.50927069 213.88368658 205.47935676 213.79320874 199 213 C193.7645086 210.52504043 189.60770769 206.21541538 187 201 C175.45 200.67 163.9 200.34 152 200 C152 211.55 152 223.1 152 235 C155.58875 234.835 159.1775 234.67 162.875 234.5 C175.71663322 234.27133908 175.71663322 234.27133908 180.8125 238.5 C182.25876357 239.95143804 183.65685963 241.45263946 185 243 C190.50004832 248.9711884 194.76328645 251.37570886 202.83447266 251.90258789 C206.892709 252.04425336 210.94020819 252.08509607 215 252 C215.28230469 251.22914063 215.56460937 250.45828125 215.85546875 249.6640625 C217.95827658 244.76947225 222.11264096 241.01869178 227 239 C234.06876956 238.08718251 240.23677517 238.59282807 246 243 C249.76456127 246.28089173 251.73502712 249.20650589 252.47265625 254.19921875 C252.6254899 260.0268322 252.62490932 265.2057651 249 270 C243.8634741 275.12438282 240.19885515 277.15174417 232.8125 277.4375 C227.04825802 277.3989432 223.81761896 276.49230553 219.5234375 272.66015625 C217.10267291 270.02214356 215 267.68848515 215 264 C214.32122803 264.06807861 213.64245605 264.13615723 212.94311523 264.20629883 C191.0505802 266.10927246 191.0505802 266.10927246 183.07250977 259.49682617 C180.24285453 256.78078227 177.59844585 253.93586183 175 251 C171.70560585 247.52459518 168.47006834 247.57296208 163.89453125 247.38085938 C163.02183594 247.35830078 162.14914062 247.33574219 161.25 247.3125 C160.36183594 247.27833984 159.47367187 247.24417969 158.55859375 247.20898438 C156.37252197 247.12671286 154.18684049 247.05749828 152 247 C152.05800781 248.18335938 152.11601562 249.36671875 152.17578125 250.5859375 C152.49388688 259.83742792 152.60178632 267.18535333 147 275 C146.61585938 275.57878906 146.23171875 276.15757812 145.8359375 276.75390625 C141.83506872 282.18365674 135.39113942 286.04298903 129 288 C125.89062319 288.2330758 122.80326184 288.18893829 119.6875 288.125 C118.85154297 288.11597656 118.01558594 288.10695313 117.15429688 288.09765625 C115.10274031 288.07420989 113.05133223 288.03834266 111 288 C110.23366254 301.45174494 110.23366254 301.45174494 116.16699219 313.09912109 C118.19807541 315.29112397 120.2653106 317.42009897 122.46020508 319.44873047 C127.81681745 324.84526051 127.81681745 324.84526051 128.45410156 328.86254883 C128.42268066 330.39431763 128.42268066 330.39431763 128.390625 331.95703125 C128.37128906 333.62475586 128.37128906 333.62475586 128.3515625 335.32617188 C128.31804687 336.47666016 128.28453125 337.62714844 128.25 338.8125 C128.23195313 339.98232422 128.21390625 341.15214844 128.1953125 342.35742188 C128.1482644 345.2391178 128.08253709 348.11913797 128 351 C129.38251953 351.38671875 129.38251953 351.38671875 130.79296875 351.78125 C134.03291211 353.0125074 135.22033225 353.83826636 137.3125 356.5 C138.04919922 357.41265625 138.04919922 357.41265625 138.80078125 358.34375 C142.32281704 363.20806001 141.37287791 369.23798093 141 375 C139.31342946 380.45655175 135.6014861 383.78941766 131 387 C125.21343405 388.92885532 118.19268292 389.35613961 112.5078125 386.94140625 C107.75704622 383.63379727 104.5628537 379.59540213 103 374 C101.97125547 367.89972544 102.35854903 363.2901934 105.6875 358 C108.07782665 354.84115225 110.27343356 352.55273602 114 351 C114.66 351 115.32 351 116 351 C116.72034479 336.99547798 116.72034479 336.99547798 110.875 324.8125 C109.25057655 323.2077495 107.62549755 321.6036625 106 320 C101.4319953 315.37173934 98.59114992 311.74969472 98.31640625 305.08984375 C98.35576747 303.0378 98.44578379 300.98659985 98.5625 298.9375 C98.706875 295.328125 98.85125 291.71875 99 288 C87.45 288 75.9 288 64 288 C64.04125 293.6925 64.0825 299.385 64.125 305.25 C64.12137451 307.93624512 64.12137451 307.93624512 64.11767578 310.67675781 C64.14120769 312.10225422 64.16693865 313.52771675 64.1953125 314.953125 C64.1862085 315.68837402 64.17710449 316.42362305 64.16772461 317.18115234 C64.17026481 319.60630099 64.17026481 319.60630099 65 323 C67.83156592 325.46957498 67.83156592 325.46957498 71 327 C75.49068553 331.45868539 77.18489144 334.82216989 77.375 341.125 C77.31322702 347.33661602 76.42403682 351.52080062 72 356 C66.64851105 360.00483418 61.29308571 361.48332556 54.703125 361.40625 C48.49461292 360.47317882 44.34635522 356.60905868 40.4375 351.9375 C37.9020178 346.7029561 38.28759122 340.63384497 39 335 C41.43226559 329.76127412 45.79683915 325.60158043 51 323 C51.33 311.45 51.66 299.9 52 288 C40.45 288 28.9 288 17 288 C17.165 291.58875 17.33 295.1775 17.5 298.875 C17.72866092 311.71663322 17.72866092 311.71663322 13.5 316.8125 C12.04856196 318.25876357 10.54736054 319.65685963 9 321 C3.0288116 326.50004832 0.62429114 330.76328645 0.09741211 338.83447266 C-0.04425336 342.892709 -0.08509607 346.94020819 0 351 C0.77085937 351.28230469 1.54171875 351.56460937 2.3359375 351.85546875 C7.23052775 353.95827658 10.98130822 358.11264096 13 363 C13.91764199 370.10613001 13.28773488 376.13038235 9 382 C3.01862657 387.68230476 -1.77341486 388.45735499 -9.8671875 388.3125 C-15.51312521 387.74931419 -17.97183557 385.07489918 -21.75 381.125 C-25.80043476 375.49939616 -26.41018887 371.1446022 -25.5390625 364.3984375 C-24.26775426 358.74203706 -20.67957929 355.15871602 -16 352 C-14.67680676 351.62845117 -13.34394416 351.28758127 -12 351 C-12.06807861 350.32122803 -12.13615723 349.64245605 -12.20629883 348.94311523 C-14.10927246 327.0505802 -14.10927246 327.0505802 -7.49682617 319.07250977 C-4.78078227 316.24285453 -1.93586183 313.59844585 1 311 C4.47540482 307.70560585 4.42703792 304.47006834 4.61914062 299.89453125 C4.65297852 298.58548828 4.65297852 298.58548828 4.6875 297.25 C4.72166016 296.36183594 4.75582031 295.47367187 4.79101562 294.55859375 C4.87328714 292.37252197 4.94250172 290.18684049 5 288 C3.81664062 288.05800781 2.63328125 288.11601562 1.4140625 288.17578125 C-7.83742792 288.49388688 -15.18535333 288.60178632 -23 283 C-23.86818359 282.42378906 -23.86818359 282.42378906 -24.75390625 281.8359375 C-30.63763312 277.50055981 -34.17426976 270.94928852 -36 264 C-36.22348509 261.03498145 -36.19046579 258.09613969 -36.125 255.125 C-36.11597656 254.34125 -36.10695313 253.5575 -36.09765625 252.75 C-36.07428063 250.83319945 -36.03841653 248.91655809 -36 247 C-49.45174494 246.23366254 -49.45174494 246.23366254 -61.09912109 252.16699219 C-63.29112397 254.19807541 -65.42009897 256.2653106 -67.44873047 258.46020508 C-72.84526051 263.81681745 -72.84526051 263.81681745 -76.86254883 264.45410156 C-78.39431763 264.42268066 -78.39431763 264.42268066 -79.95703125 264.390625 C-81.62475586 264.37128906 -81.62475586 264.37128906 -83.32617188 264.3515625 C-85.0519043 264.30128906 -85.0519043 264.30128906 -86.8125 264.25 C-87.98232422 264.23195313 -89.15214844 264.21390625 -90.35742188 264.1953125 C-93.2391178 264.1482644 -96.11913797 264.08253709 -99 264 C-99.38865234 265.38251953 -99.38865234 265.38251953 -99.78515625 266.79296875 C-101.00300528 270.00793355 -101.81255558 271.21818951 -104.4375 273.3125 C-105.03433594 273.80363281 -105.63117188 274.29476563 -106.24609375 274.80078125 C-111.34645002 278.28810725 -118.10902101 277.51573306 -124 277 C-128.92265695 274.7144807 -131.81049249 271.28305294 -135 267 C-136.9260867 261.22173989 -137.38773585 254.16205525 -134.90625 248.5078125 C-131.84023051 244.1860297 -128.14631723 240.54389517 -123 239 C-116.62572034 237.98510072 -111.47654606 238.19058185 -105.9375 241.6875 C-102.81662016 244.07904379 -100.53997195 246.30406732 -99 250 C-99 250.66 -99 251.32 -99 252 C-84.99547798 252.72034479 -84.99547798 252.72034479 -72.8125 246.875 C-71.2077495 245.25057655 -69.6036625 243.62549755 -68 242 C-63.37173934 237.4319953 -59.74969472 234.59114992 -53.08984375 234.31640625 C-51.0378 234.35576747 -48.98659985 234.44578379 -46.9375 234.5625 C-43.328125 234.706875 -39.71875 234.85125 -36 235 C-36 223.45 -36 211.9 -36 200 C-41.6925 200.04125 -47.385 200.0825 -53.25 200.125 C-55.04083008 200.12258301 -56.83166016 200.12016602 -58.67675781 200.11767578 C-60.10225422 200.14120769 -61.52771675 200.16693865 -62.953125 200.1953125 C-63.68837402 200.1862085 -64.42362305 200.17710449 -65.18115234 200.16772461 C-67.60630099 200.17026481 -67.60630099 200.17026481 -71 201 C-73.47077013 203.81870218 -73.47077013 203.81870218 -75 207 C-78.22053389 210.63150689 -81.30370369 212.70140102 -86.12890625 213.55078125 C-92.34769228 213.80299158 -97.33331979 213.32872839 -102.4140625 209.56640625 C-106.68842152 205.34468712 -108.85205189 200.21922166 -109.25 194.25 C-109.15684675 188.60905335 -107.31245679 184.51968681 -103.625 180.25 C-97.86009884 175.30865615 -93.76853844 174.34055225 -86.234375 174.51953125 C-81.31389997 175.25047138 -78.26385844 177.3196399 -75 181 C-74.47124268 182.01255859 -73.94248535 183.02511719 -73.39770508 184.06835938 C-71.22221445 187.35329343 -71.22221445 187.35329343 -67.33300781 187.77294922 C-65.8735631 187.81318578 -64.41301236 187.82276412 -62.953125 187.8046875 C-61.92711182 187.82511108 -61.92711182 187.82511108 -60.88037109 187.84594727 C-58.33724212 187.8879289 -55.79347315 187.8784328 -53.25 187.875 C-47.5575 187.91625 -41.865 187.9575 -36 188 C-36 176.45 -36 164.9 -36 153 C-39.58875 153.165 -43.1775 153.33 -46.875 153.5 C-59.71663322 153.72866092 -59.71663322 153.72866092 -64.8125 149.5 C-66.25876357 148.04856196 -67.65685963 146.54736054 -69 145 C-74.50004832 139.0288116 -78.76328645 136.62429114 -86.83447266 136.09741211 C-90.892709 135.95574664 -94.94020819 135.91490393 -99 136 C-99.28230469 136.77085937 -99.56460938 137.54171875 -99.85546875 138.3359375 C-102.04322567 143.42825907 -106.16742026 146.52067648 -111 149 C-116.691785 149.94208855 -122.32971147 149.87434487 -127.4375 147 C-131.4397612 143.99203751 -134.34591072 140.77170456 -136 136 C-136.81538385 130.09748679 -136.90675681 124.95301466 -134.375 119.5 C-126.50285366 111.21353017 -126.50285366 111.21353017 -121.20703125 110.76171875 C-114.19393413 110.60838291 -109.59103675 110.59854554 -104 115 C-101.19341758 117.95429729 -99.84942703 120.06931804 -99 124 C-98.32122803 123.93192139 -97.64245605 123.86384277 -96.94311523 123.79370117 C-75.0505802 121.89072754 -75.0505802 121.89072754 -67.07250977 128.50317383 C-64.24285453 131.21921773 -61.59844585 134.06413817 -59 137 C-55.70560585 140.47540482 -52.47006834 140.42703792 -47.89453125 140.61914062 C-46.58548828 140.65297852 -46.58548828 140.65297852 -45.25 140.6875 C-44.36183594 140.72166016 -43.47367187 140.75582031 -42.55859375 140.79101562 C-40.37252197 140.87328714 -38.18684049 140.94250172 -36 141 C-36.05800781 139.81664062 -36.11601562 138.63328125 -36.17578125 137.4140625 C-36.49421928 128.15290477 -36.59167139 120.82833995 -31 113 C-30.278125 111.9275 -29.55625 110.855 -28.8125 109.75 C-23.39120991 104.44918302 -16.54050266 99.84723048 -8.76953125 99.90234375 C-7.56586914 99.90717773 -7.56586914 99.90717773 -6.33789062 99.91210938 C-5.08782227 99.92467773 -5.08782227 99.92467773 -3.8125 99.9375 C-2.96751953 99.94201172 -2.12253906 99.94652344 -1.25195312 99.95117188 C0.83206155 99.96294597 2.91603977 99.9808811 5 100 C5.76633746 86.54825506 5.76633746 86.54825506 -0.16699219 74.90087891 C-2.19807541 72.70887603 -4.2653106 70.57990103 -6.46020508 68.55126953 C-11.81681745 63.15473949 -11.81681745 63.15473949 -12.45410156 59.13745117 C-12.4331543 58.11627197 -12.41220703 57.09509277 -12.390625 56.04296875 C-12.37773437 54.93115234 -12.36484375 53.81933594 -12.3515625 52.67382812 C-12.31804687 51.52333984 -12.28453125 50.37285156 -12.25 49.1875 C-12.23195313 48.01767578 -12.21390625 46.84785156 -12.1953125 45.64257812 C-12.1482644 42.7608822 -12.08253709 39.88086203 -12 37 C-12.93328125 36.72929687 -13.8665625 36.45859375 -14.828125 36.1796875 C-19.44341004 34.46316523 -21.56740966 31.30416627 -24.1171875 27.203125 C-26.03061127 22.42803204 -25.50235721 17.03613099 -25 12 C-19.97141025 1.16919131 -11.13224208 -1.14577462 0 0 Z " fill="#070908" transform="translate(242,106)"/>
<path d="M0 0 C1.34602992 -0.00870533 2.69204995 -0.01907533 4.03805542 -0.03097534 C7.67873753 -0.05766116 11.31900321 -0.05892341 14.959764 -0.05384874 C18.00631302 -0.05170266 21.05277891 -0.06149307 24.09931004 -0.07105958 C31.29087986 -0.09321774 38.48224072 -0.09414327 45.67382812 -0.08203125 C53.07618508 -0.06995532 60.47778138 -0.09457026 67.88000858 -0.13717139 C74.25056272 -0.17247772 80.62087556 -0.18439449 86.99152386 -0.1778959 C90.78973474 -0.17428124 94.58740307 -0.17942965 98.38552475 -0.20732498 C101.95970237 -0.23259533 105.53270028 -0.22849109 109.10686111 -0.2025032 C111.03143684 -0.1955653 112.95604954 -0.21804654 114.88049316 -0.24163818 C122.6904712 -0.14746387 127.95326816 1.03817424 133.68017578 6.54931641 C138.79934831 12.70995935 138.26020978 19.11294875 138.22949219 26.86914062 C138.23819752 28.21517055 138.24856752 29.56119057 138.26046753 30.90719604 C138.28715335 34.54787816 138.28841559 38.18814384 138.28334093 41.82890463 C138.28119485 44.87545364 138.29098526 47.92191954 138.30055177 50.96845067 C138.32270993 58.16002048 138.32363545 65.35138135 138.31152344 72.54296875 C138.29944751 79.9453257 138.32406245 87.346922 138.36666358 94.7491492 C138.40196991 101.11970335 138.41388667 107.49001619 138.40738809 113.86066449 C138.40377343 117.65887537 138.40892184 121.45654369 138.43681717 125.25466537 C138.46208752 128.82884299 138.45798328 132.4018409 138.43199539 135.97600174 C138.42505748 137.90057746 138.44753873 139.82519016 138.47113037 141.74963379 C138.37695606 149.55961182 137.19131794 154.82240878 131.68017578 160.54931641 C125.51953283 165.66848894 119.11654344 165.1293504 111.36035156 165.09863281 C110.01432164 165.10733814 108.66830161 165.11770814 107.32229614 165.12960815 C103.68161403 165.15629398 100.04134835 165.15755622 96.40058756 165.15248156 C93.35403855 165.15033547 90.30757265 165.16012588 87.26104152 165.1696924 C80.06947171 165.19185055 72.87811084 165.19277608 65.68652344 165.18066406 C58.28416648 165.16858814 50.88257019 165.19320307 43.48034298 165.2358042 C37.10978884 165.27111053 30.739476 165.2830273 24.3688277 165.27652872 C20.57061682 165.27291405 16.7729485 165.27806246 12.97482681 165.30595779 C9.40064919 165.33122815 5.82765129 165.3271239 2.25349045 165.30113602 C0.32891473 165.29419811 -1.59569797 165.31667936 -3.5201416 165.340271 C-11.33011963 165.24609668 -16.5929166 164.06045857 -22.31982422 158.54931641 C-27.43899675 152.38867346 -26.89985822 145.98568407 -26.86914062 138.22949219 C-26.87784596 136.88346226 -26.88821595 135.53744224 -26.90011597 134.19143677 C-26.92680179 130.55075466 -26.92806403 126.91048898 -26.92298937 123.26972818 C-26.92084329 120.22317917 -26.93063369 117.17671327 -26.94020021 114.13018215 C-26.96235836 106.93861233 -26.96328389 99.74725146 -26.95117188 92.55566406 C-26.93909595 85.15330711 -26.96371088 77.75171081 -27.00631201 70.34948361 C-27.04161835 63.97892947 -27.05353511 57.60861663 -27.04703653 51.23796833 C-27.04342187 47.43975744 -27.04857027 43.64208912 -27.07646561 39.84396744 C-27.10173596 36.26978982 -27.09763172 32.69679191 -27.07164383 29.12263107 C-27.06470592 27.19805535 -27.08718717 25.27344265 -27.11077881 23.34899902 C-27.01660449 15.53902099 -25.83096638 10.27622403 -20.31982422 4.54931641 C-14.15918127 -0.56985612 -7.75619188 -0.03071759 0 0 Z " fill="#FDFDFD" transform="translate(244.31982421875,217.45068359375)"/>
<path d="M0 0 C3.01629773 0.45244466 3.59475565 1.05537852 5.5 3.375 C6.51147461 5.62060547 6.51147461 5.62060547 7.40234375 8.2421875 C7.8986731 9.68464844 7.8986731 9.68464844 8.4050293 11.15625 C8.74574463 12.1771875 9.08645996 13.198125 9.4375 14.25 C9.79303955 15.29414063 10.1485791 16.33828125 10.51489258 17.4140625 C12.64081291 23.6937041 14.6768496 29.99132466 16.57421875 36.34375 C17.65299185 39.87593535 18.82068681 43.3755019 20 46.875 C22.59224621 54.5903664 24.98460599 62.35928413 27.33837891 70.14990234 C27.9666353 72.22838665 28.59555691 74.30666997 29.22509766 76.38476562 C29.86062484 78.48319834 30.49444789 80.58214801 31.12646484 82.68164062 C31.41859863 83.64650391 31.71073242 84.61136719 32.01171875 85.60546875 C32.27428467 86.47582764 32.53685059 87.34618652 32.80737305 88.24291992 C33.44805352 90.39526191 33.44805352 90.39526191 34.5 92.375 C34.8125 95.8125 34.8125 95.8125 34.5 99.375 C32.8125 101.375 32.8125 101.375 30.5 102.375 C27.9375 102.3125 27.9375 102.3125 25.5 101.375 C22.24583358 97.91201006 20.96286384 93.71693933 19.4375 89.3125 C19.18162109 88.61189453 18.92574219 87.91128906 18.66210938 87.18945312 C16.55142502 81.18295549 15.67335188 75.82843535 14.5 69.375 C4.93 69.375 -4.64 69.375 -14.5 69.375 C-15.16 73.005 -15.82 76.635 -16.5 80.375 C-17.57415582 83.7708854 -18.67836001 87.05472002 -19.9375 90.375 C-20.23720703 91.20644531 -20.53691406 92.03789062 -20.84570312 92.89453125 C-23.50595335 100.03854378 -23.50595335 100.03854378 -26.5 102.375 C-30.14734979 102.15169287 -31.88372835 101.99127165 -34.5 99.375 C-34.9828579 93.94443835 -33.84089923 89.47685349 -32.05078125 84.4140625 C-31.79628708 83.66522797 -31.54179291 82.91639343 -31.27958679 82.14486694 C-30.46718229 79.75969473 -29.64068593 77.37973332 -28.8125 75 C-27.74091478 71.88978134 -26.67549264 68.77749417 -25.61328125 65.6640625 C-25.35063477 64.89612366 -25.08798828 64.12818481 -24.81738281 63.3369751 C-22.55059349 56.65159683 -20.52699213 49.90689105 -18.5793457 43.12255859 C-16.08926805 34.47684678 -13.42596504 25.88322094 -10.5 17.375 C-10.10683594 16.20066406 -9.71367187 15.02632813 -9.30859375 13.81640625 C-8.87306652 12.54404106 -8.43686704 11.27190579 -8 10 C-7.5978125 8.81664062 -7.195625 7.63328125 -6.78125 6.4140625 C-5.17932579 2.61437642 -4.1702656 0.62553984 0 0 Z " fill="#080A09" transform="translate(285.5,248.625)"/>
<path d="M0 0 C2.875 0.875 2.875 0.875 4.875 2.875 C5.08440951 5.86640396 5.16862854 8.76595122 5.16552734 11.75927734 C5.17560318 13.13996147 5.17560318 13.13996147 5.18588257 14.54853821 C5.20493859 17.60272566 5.20879067 20.65669424 5.2109375 23.7109375 C5.21736042 25.82842094 5.22408839 27.94590347 5.23110962 30.06338501 C5.24310162 34.50712136 5.2467885 38.95077986 5.24560547 43.39453125 C5.24540224 49.09346408 5.27270046 54.79189846 5.30714989 60.49071312 C5.32937009 64.86585795 5.3334445 69.24088194 5.33238602 73.61607742 C5.33474949 75.71726829 5.34361477 77.81846213 5.35905075 79.91959763 C5.3786108 82.8573994 5.37291178 85.79411494 5.36083984 88.73193359 C5.37207886 89.60273056 5.38331787 90.47352753 5.39489746 91.37071228 C5.3334622 97.24368028 5.3334622 97.24368028 3.00479126 100.4503479 C0.875 101.875 0.875 101.875 -1.6875 101.8125 C-4.29689206 100.80888767 -5.37790358 100.02124065 -7.125 97.875 C-7.42662782 94.83876522 -7.54491966 92.00692451 -7.52905273 88.96899414 C-7.53591599 88.0581456 -7.54277924 87.14729706 -7.54985046 86.20884705 C-7.56817907 83.19245902 -7.56427225 80.17658811 -7.55859375 77.16015625 C-7.56315273 75.0665215 -7.56845745 72.97288826 -7.57447815 70.8792572 C-7.58342124 66.48853481 -7.58097258 62.09799418 -7.57104492 57.70727539 C-7.55955545 52.0767215 -7.57976058 46.44679475 -7.60896206 40.81632328 C-7.62729653 36.49177556 -7.62703705 32.16737887 -7.62132454 27.84280205 C-7.62117098 25.76673948 -7.62724391 23.6906669 -7.63961601 21.61464119 C-7.65447159 18.71282595 -7.64388874 15.81217874 -7.62670898 12.91040039 C-7.63637695 12.05052521 -7.64604492 11.19065002 -7.65600586 10.30471802 C-7.60828036 6.46065256 -7.568738 4.49673179 -5.28895569 1.30247498 C-3.125 -0.125 -3.125 -0.125 0 0 Z " fill="#060707" transform="translate(344.125,249.125)"/>
<path d="M0 0 C2.2158395 2.2158395 2.70651636 3.60437424 3.69140625 6.54296875 C3.99626953 7.45240234 4.30113281 8.36183594 4.61523438 9.29882812 C4.92783203 10.25208984 5.24042969 11.20535156 5.5625 12.1875 C5.87896484 13.12142578 6.19542969 14.05535156 6.52148438 15.01757812 C6.82505859 15.93345703 7.12863281 16.84933594 7.44140625 17.79296875 C7.71670166 18.6233667 7.99199707 19.45376465 8.27563477 20.30932617 C9.12854714 23.47749176 9.53600145 26.75201015 10 30 C3.73 30 -2.54 30 -9 30 C-6.55943848 19.6954069 -3.77209793 9.89402736 0 0 Z " fill="#F2F3F3" transform="translate(285,276)"/>
<path d="M0 0 C2.5 1.5625 2.5 1.5625 4 4 C3.93913078 7.46954545 3.6274029 9.91947278 1.875 12.9375 C-1.18452459 14.6712306 -3.56817525 14.42145216 -7 14 C-9.4375 12.375 -9.4375 12.375 -11 10 C-11.60605429 6.36367425 -11.47161336 4.71685231 -9.4375 1.625 C-6.06489221 -0.62340519 -3.97487617 -0.56783945 0 0 Z " fill="#F2F3F3" transform="translate(156,293)"/>
<path d="M0 0 C4.36689189 1.42398649 4.36689189 1.42398649 5.875 3.9375 C6.37530235 7.86844707 6.4746142 10.0380787 4.25 13.375 C1.15814769 15.40911336 -0.48867425 15.54355429 -4.125 14.9375 C-6.5 13.375 -6.5 13.375 -8.125 10.9375 C-8.6875 7.4375 -8.6875 7.4375 -8.125 3.9375 C-5.45043116 0.79094842 -4.15592269 -0.08311845 0 0 Z " fill="#F4F4F4" transform="translate(301.125,440.0625)"/>
<path d="M0 0 C2.5 1.5625 2.5 1.5625 4 4 C3.93913078 7.46954545 3.6274029 9.91947278 1.875 12.9375 C-1.22289358 14.69297303 -3.52844534 14.48723574 -7 14 C-9.69500656 11.58140437 -10.80636871 9.99236035 -11.5 6.4375 C-10.19781462 0.08934627 -5.87567428 -0.83938204 0 0 Z " fill="#F8F8F8" transform="translate(451,293)"/>
<path d="M0 0 C2.375 1.5625 2.375 1.5625 4 4 C4.5625 7.5 4.5625 7.5 4 11 C1.875 13.5 1.875 13.5 -1 15 C-4.18409977 14.936318 -6.14932332 14.51040601 -8.875 12.875 C-10.70099685 9.83167192 -10.42460581 7.45750445 -10 4 C-7.26646839 -0.10029741 -4.80388991 -0.80064832 0 0 Z " fill="#F4F5F4" transform="translate(303,145)"/>
<path d="M0 0 C2.375 1 2.375 1 4 3 C4.65964122 6.55761554 4.63041883 9.73916234 3 13 C-0.26083766 14.63041883 -3.44238446 14.65964122 -7 14 C-9.6923481 11.81246717 -9.93936827 10.41576045 -10.4375 7 C-10 4 -10 4 -8.375 1.625 C-5.30522452 -0.4753727 -3.65443439 -0.53293835 0 0 Z " fill="#F5F5F6" transform="translate(478,357)"/>
<path d="M0 0 C2.375 1.625 2.375 1.625 4 4 C4.48288863 7.31123632 4.29618989 9.296549 3 12.375 C0.2897489 14.57707902 -1.70878117 14.51582761 -5.125 14.30859375 C-7 14 -7 14 -9 13 C-10.63041883 9.73916234 -10.65964122 6.55761554 -10 3 C-7.21052771 -0.43319666 -4.246332 -0.61925675 0 0 Z " fill="#F5F6F6" transform="translate(128,357)"/>
<path d="M0 0 C1.875 0.30859375 1.875 0.30859375 3.875 1.30859375 C5.50541883 4.56943141 5.53464122 7.75097821 4.875 11.30859375 C2.68746717 14.00094185 1.29076045 14.24796202 -2.125 14.74609375 C-5.125 14.30859375 -5.125 14.30859375 -7.5 12.68359375 C-9.6003727 9.61381827 -9.65793835 7.96302814 -9.125 4.30859375 C-7.22735706 -0.19830824 -4.46860694 -0.27107358 0 0 Z " fill="#F5F5F5" transform="translate(366.125,117.69140625)"/>
<path d="M0 0 C2.375 1.625 2.375 1.625 4 4 C4.60605429 7.63632575 4.47161336 9.28314769 2.4375 12.375 C-0.8994213 14.5996142 -3.06905293 14.50030235 -7 14 C-8.9375 13 -8.9375 13 -10 11 C-10.45982357 8.24105859 -10.51068558 5.75425931 -10 3 C-7.21052771 -0.43319666 -4.246332 -0.61925675 0 0 Z " fill="#F6F7F6" transform="translate(239,468)"/>
<path d="M0 0 C2.375 1 2.375 1 4 3 C4.66300779 6.57577233 4.65930485 9.75895557 2.9375 13 C-0.17909511 14.60856522 -2.56262469 14.42213381 -6 14 C-8.4375 12.375 -8.4375 12.375 -10 10 C-10.61195145 6.3282913 -10.48706506 4.71186432 -8.375 1.625 C-5.30522452 -0.4753727 -3.65443439 -0.53293835 0 0 Z " fill="#F6F6F6" transform="translate(367,468)"/>
<path d="M0 0 C1.875 0.3125 1.875 0.3125 3.875 1.375 C5.48356522 4.49159511 5.29713381 6.87512469 4.875 10.3125 C3.25 12.75 3.25 12.75 0.875 14.3125 C-2.7967087 14.92445145 -4.41313568 14.79956506 -7.5 12.6875 C-9.6003727 9.61772452 -9.65793835 7.96693439 -9.125 4.3125 C-7.22664871 -0.19608432 -4.46900058 -0.26288239 0 0 Z " fill="#F6F6F6" transform="translate(477.125,228.6875)"/>
<path d="M0 0 C2.4375 1.625 2.4375 1.625 4 4 C4.61195145 7.6717087 4.48706506 9.28813568 2.375 12.375 C-0.71186432 14.48706506 -2.3282913 14.61195145 -6 14 C-8.375 12.4375 -8.375 12.4375 -10 10 C-10.42519574 6.53769185 -10.63902633 4.1652833 -8.9375 1.0625 C-5.8347167 -0.63902633 -3.46230815 -0.42519574 0 0 Z " fill="#F7F7F7" transform="translate(128,229)"/>
<path d="M0 0 C2.4375 1.625 2.4375 1.625 4 4 C4.61195145 7.6717087 4.48706506 9.28813568 2.375 12.375 C-0.71186432 14.48706506 -2.3282913 14.61195145 -6 14 C-8.375 12.4375 -8.375 12.4375 -10 10 C-10.42519574 6.53769185 -10.63902633 4.1652833 -8.9375 1.0625 C-5.8347167 -0.63902633 -3.46230815 -0.42519574 0 0 Z " fill="#F7F7F7" transform="translate(239,118)"/>
<path d="M0 0 C0.66 0.33 1.32 0.66 2 1 C0.54744301 4.82946843 -1.42895561 6.12050295 -5 8 C-3.8141763 4.62496331 -2.72426311 2.35277269 0 0 Z " fill="#191919" transform="translate(352,109)"/>
<path d="M0 0 C0.99 0.33 1.98 0.66 3 1 C2 3 2 3 0.0625 3.875 C-2.42001234 5.22909764 -2.96871397 6.42178493 -4 9 C-4.25 6.75 -4.25 6.75 -4 4 C-2 1.6875 -2 1.6875 0 0 Z " fill="#CDCDCD" transform="translate(444,293)"/>
</svg>
