<?xml version="1.0" encoding="UTF-8"?>
<svg version="1.1" xmlns="http://www.w3.org/2000/svg" width="251" height="201">
<path d="M0 0 C82.83 0 165.66 0 251 0 C251 66.33 251 132.66 251 201 C168.17 201 85.34 201 0 201 C0 134.67 0 68.34 0 0 Z " fill="#FDFEFE" transform="translate(0,0)"/>
<path d="M0 0 C0.69512695 -0.00095673 1.39025391 -0.00191345 2.10644531 -0.00289917 C3.57226655 -0.00357794 5.03809083 -0.0017448 6.50390625 0.00244141 C8.74225645 0.00779398 10.98040601 0.00248621 13.21875 -0.00390625 C14.64583377 -0.00324541 16.07291742 -0.00196414 17.5 0 C18.79421875 0.00112793 20.0884375 0.00225586 21.421875 0.00341797 C24.75 0.1328125 24.75 0.1328125 26.58538818 0.62806702 C29.32812716 1.26762054 31.89535264 1.29671474 34.71191406 1.33813477 C35.91285706 1.35807999 37.11380005 1.37802521 38.35113525 1.39857483 C39.64291687 1.41528732 40.93469849 1.43199982 42.265625 1.44921875 C43.60512921 1.46980213 44.94462713 1.49079896 46.28411865 1.51219177 C49.80215341 1.56726959 53.3202454 1.61674156 56.83837891 1.66503906 C60.43136664 1.71535875 64.02427173 1.77099006 67.6171875 1.82617188 C74.66138797 1.93357852 81.70566488 2.03457088 88.75 2.1328125 C88.75 8.7328125 88.75 15.3328125 88.75 22.1328125 C74.89 22.1328125 61.03 22.1328125 46.75 22.1328125 C46.75 30.0528125 46.75 37.9728125 46.75 46.1328125 C33.69337159 50.08936656 21.49732357 52.57867164 7.75 52.1328125 C7.73582031 51.11703125 7.72164063 50.10125 7.70703125 49.0546875 C7.33073052 35.05862868 7.33073052 35.05862868 0.75 23.1328125 C-1.92058851 22.99166089 -4.57432238 23.09034143 -7.25 23.1328125 C-6.486875 23.9784375 -5.72375 24.8240625 -4.9375 25.6953125 C1.52857235 32.86041969 1.13252817 40.40398855 0.9375 49.5703125 C0.91719727 51.38305664 0.91719727 51.38305664 0.89648438 53.23242188 C0.86129946 56.19968332 0.81206696 59.16601187 0.75 62.1328125 C-1.95706344 62.94975481 -4.66551396 63.76147744 -7.375 64.5703125 C-8.13554687 64.80041016 -8.89609375 65.03050781 -9.6796875 65.26757812 C-10.80117187 65.60112305 -10.80117187 65.60112305 -11.9453125 65.94140625 C-12.9664917 66.24776001 -12.9664917 66.24776001 -14.00830078 66.56030273 C-32.97563153 71.40438797 -56.24648433 69.42735685 -74.25 62.1328125 C-74.39688806 58.00819569 -74.48460044 53.88426326 -74.5625 49.7578125 C-74.60439453 48.60152344 -74.64628906 47.44523437 -74.68945312 46.25390625 C-74.81375794 37.45312543 -73.37925893 30.57955093 -67.2590332 23.98876953 C-60.96839548 18.00055847 -54.78838954 15.66028202 -46.15625 15.734375 C-45.03071716 15.73006973 -45.03071716 15.73006973 -43.88244629 15.72567749 C-42.30590046 15.72364829 -40.7293288 15.72909758 -39.15283203 15.74169922 C-36.75625669 15.75777054 -34.36136739 15.74181272 -31.96484375 15.72265625 C-30.42447549 15.72463889 -28.88410827 15.72848299 -27.34375 15.734375 C-26.6362561 15.72830231 -25.92876221 15.72222961 -25.1998291 15.7159729 C-20.13120652 15.78670943 -16.71267951 16.93422235 -12.25 19.1328125 C-12.745 15.6678125 -12.745 15.6678125 -13.25 12.1328125 C-14.24 11.8028125 -15.23 11.4728125 -16.25 11.1328125 C-15.58333333 9.79947917 -14.91666667 8.46614583 -14.25 7.1328125 C-13.79625 6.0809375 -13.3425 5.0290625 -12.875 3.9453125 C-11.25 1.1328125 -11.25 1.1328125 -9.6015625 0.46533203 C-6.38518445 0.01052442 -3.24862033 0.00283122 0 0 Z " fill="#1A75BC" transform="translate(162.25,121.8671875)"/>
<path d="M0 0 C0.69512695 -0.00095673 1.39025391 -0.00191345 2.10644531 -0.00289917 C3.57226655 -0.00357794 5.03809083 -0.0017448 6.50390625 0.00244141 C8.74225645 0.00779398 10.98040601 0.00248621 13.21875 -0.00390625 C14.64583377 -0.00324541 16.07291742 -0.00196414 17.5 0 C18.79421875 0.00112793 20.0884375 0.00225586 21.421875 0.00341797 C24.75 0.1328125 24.75 0.1328125 26.58538818 0.62806702 C29.32812716 1.26762054 31.89535264 1.29671474 34.71191406 1.33813477 C35.91285706 1.35807999 37.11380005 1.37802521 38.35113525 1.39857483 C39.64291687 1.41528732 40.93469849 1.43199982 42.265625 1.44921875 C43.60512921 1.46980213 44.94462713 1.49079896 46.28411865 1.51219177 C49.80215341 1.56726959 53.3202454 1.61674156 56.83837891 1.66503906 C60.43136664 1.71535875 64.02427173 1.77099006 67.6171875 1.82617188 C74.66138797 1.93357852 81.70566488 2.03457088 88.75 2.1328125 C88.75 8.7328125 88.75 15.3328125 88.75 22.1328125 C74.89 22.1328125 61.03 22.1328125 46.75 22.1328125 C46.75 30.0528125 46.75 37.9728125 46.75 46.1328125 C33.69337159 50.08936656 21.49732357 52.57867164 7.75 52.1328125 C7.73582031 51.11703125 7.72164062 50.10125 7.70703125 49.0546875 C7.33073052 35.05862868 7.33073052 35.05862868 0.75 23.1328125 C-1.7334257 22.88854112 -4.21567293 22.74921491 -6.70703125 22.609375 C-9.67681205 22.05282622 -11.1189049 21.2639076 -13.25 19.1328125 C-13.5 15.4453125 -13.5 15.4453125 -13.25 12.1328125 C-14.24 11.8028125 -15.23 11.4728125 -16.25 11.1328125 C-15.58333333 9.79947917 -14.91666667 8.46614583 -14.25 7.1328125 C-13.79625 6.0809375 -13.3425 5.0290625 -12.875 3.9453125 C-11.25 1.1328125 -11.25 1.1328125 -9.6015625 0.46533203 C-6.38518445 0.01052442 -3.24862033 0.00283122 0 0 Z " fill="#447396" transform="translate(162.25,121.8671875)"/>
<path d="M0 0 C5.48624831 4.28137928 8.58730562 9.88274713 9.95703125 16.6796875 C10.99405129 28.40599106 7.06405668 34.74889015 0.05078125 43.77734375 C-3.48775553 48.68244231 -5.10900171 53.70229841 -6.04296875 59.6796875 C-9.01296875 59.6796875 -11.98296875 59.6796875 -15.04296875 59.6796875 C-15.09673816 56.38780481 -15.13652981 53.09679324 -15.16796875 49.8046875 C-15.18472656 48.86753906 -15.20148438 47.93039063 -15.21875 46.96484375 C-15.22519531 46.06894531 -15.23164062 45.17304687 -15.23828125 44.25 C-15.24875488 43.42258301 -15.25922852 42.59516602 -15.27001953 41.74267578 C-15.04296875 39.6796875 -15.04296875 39.6796875 -13.04296875 37.6796875 C-13.36338272 35.07688182 -13.36338272 35.07688182 -14.04296875 32.6796875 C-15.69296875 32.6796875 -17.34296875 32.6796875 -19.04296875 32.6796875 C-19.72255478 35.07688182 -19.72255478 35.07688182 -20.04296875 37.6796875 C-19.38296875 38.3396875 -18.72296875 38.9996875 -18.04296875 39.6796875 C-17.81591797 41.74267578 -17.81591797 41.74267578 -17.84765625 44.25 C-17.85410156 45.14589844 -17.86054687 46.04179688 -17.8671875 46.96484375 C-17.88394531 47.90199219 -17.90070313 48.83914062 -17.91796875 49.8046875 C-17.92699219 50.74957031 -17.93601562 51.69445312 -17.9453125 52.66796875 C-17.96892207 55.00531577 -18.00479381 57.34253299 -18.04296875 59.6796875 C-21.01296875 59.6796875 -23.98296875 59.6796875 -27.04296875 59.6796875 C-27.24921875 58.4009375 -27.45546875 57.1221875 -27.66796875 55.8046875 C-29.49177532 47.62324535 -34.56057593 40.99254527 -39.74609375 34.56640625 C-43.61820692 28.93318137 -43.64655187 23.29124412 -43.04296875 16.6796875 C-40.93516708 7.69460593 -35.7499897 1.52668114 -28.04296875 -3.3203125 C-18.60999583 -7.83173433 -8.46730493 -5.47217795 0 0 Z " fill="#1B76BC" transform="translate(142.04296875,19.3203125)"/>
<path d="M0 0 C0.7381041 0.00045822 1.47620819 0.00091644 2.23667908 0.00138855 C3.79069637 0.00439852 5.34471099 0.01224707 6.89868164 0.0246582 C9.27305828 0.04293576 11.64704463 0.0451675 14.02148438 0.04492188 C15.53515961 0.04983709 17.04883221 0.05566542 18.5625 0.0625 C19.62356712 0.06416924 19.62356712 0.06416924 20.70606995 0.06587219 C27.25319975 0.1287533 27.25319975 0.1287533 30.21484375 1.23046875 C31.69921875 3.0078125 31.69921875 3.0078125 32.96484375 5.16796875 C33.3928125 5.87824219 33.82078125 6.58851563 34.26171875 7.3203125 C35.21484375 9.23046875 35.21484375 9.23046875 35.21484375 11.23046875 C34.56257813 11.53339844 33.9103125 11.83632812 33.23828125 12.1484375 C22.26326218 17.40932422 18.10234299 22.05449328 13.21484375 33.23046875 C11.97724552 36.94326344 11.85875478 40.54353221 11.65234375 44.41796875 C11.58756836 45.54235352 11.58756836 45.54235352 11.52148438 46.68945312 C11.4156169 48.5362525 11.31474615 50.38333709 11.21484375 52.23046875 C2.5811613 52.64878984 -5.46901823 52.43348488 -13.91015625 50.41796875 C-14.95610962 50.16998535 -14.95610962 50.16998535 -16.02319336 49.91699219 C-20.24751169 48.83244581 -23.95822313 47.31084205 -27.78515625 45.23046875 C-29.07641081 17.93533389 -29.07641081 17.93533389 -21.78515625 9.23046875 C-15.18747903 2.73696538 -9.283593 -0.09457297 0 0 Z " fill="#1B75BC" transform="translate(69.78515625,121.76953125)"/>
<path d="M0 0 C5.28 0 10.56 0 16 0 C16.33 0.66 16.66 1.32 17 2 C15.35 2.99 13.7 3.98 12 5 C12 4.34 12 3.68 12 3 C7.39257135 4.21044132 7.39257135 4.21044132 3 6 C4.98 6.66 6.96 7.32 9 8 C8.67 7.34 8.34 6.68 8 6 C8.99 6 9.98 6 11 6 C11 6.66 11 7.32 11 8 C11.99 8.33 12.98 8.66 14 9 C13.67 10.32 13.34 11.64 13 13 C12.34 12.67 11.68 12.34 11 12 C13.5654594 14.5654594 15.47686668 14.54046087 19 15 C19.33 14.34 19.66 13.68 20 13 C20.33 13.33 20.66 13.66 21 14 C22.41570123 14.08651611 23.835595 14.10704904 25.25390625 14.09765625 C26.10791016 14.09443359 26.96191406 14.09121094 27.84179688 14.08789062 C29.18854492 14.07532227 29.18854492 14.07532227 30.5625 14.0625 C31.46419922 14.05798828 32.36589844 14.05347656 33.29492188 14.04882812 C35.53001314 14.03700225 37.76497437 14.0205222 40 14 C40.33 13.34 40.66 12.68 41 12 C38.525 11.505 38.525 11.505 36 11 C35.67 11.66 35.34 12.32 35 13 C34.15901344 8.98195309 33.94595055 5.98196457 35 2 C37.31 2.66 39.62 3.32 42 4 C42.10957031 4.69867188 42.21914062 5.39734375 42.33203125 6.1171875 C42.49058594 7.02726563 42.64914063 7.93734375 42.8125 8.875 C42.96332031 9.77992188 43.11414063 10.68484375 43.26953125 11.6171875 C43.83051301 14.34412478 43.83051301 14.34412478 47 16 C48.02140599 19.43823334 48.11852919 22.73150892 48.09765625 26.30078125 C48.09443359 27.27724609 48.09121094 28.25371094 48.08789062 29.25976562 C48.07532227 30.77086914 48.07532227 30.77086914 48.0625 32.3125 C48.05798828 33.33923828 48.05347656 34.36597656 48.04882812 35.42382812 C48.03708184 37.94927882 48.02065565 40.47460905 48 43 C34.99756411 47.01574482 22.70193491 49.44438708 9 49 C8.98582031 47.98421875 8.97164062 46.9684375 8.95703125 45.921875 C8.68435723 36.59983197 7.1619814 29.47863103 3 21 C2.67 20.01 2.34 19.02 2 18 C-0.64 18 -3.28 18 -6 18 C-6.33 17.01 -6.66 16.02 -7 15 C-5.68 15 -4.36 15 -3 15 C-2.67 14.34 -2.34 13.68 -2 13 C-1.443125 13.165 -0.88625 13.33 -0.3125 13.5 C2.18691249 14.04041351 4.45045662 14.07082065 7 14 C7 13.34 7 12.68 7 12 C6.195625 12.20625 5.39125 12.4125 4.5625 12.625 C0.13444105 13.09111147 -3.80302227 12.51091198 -8 11 C-8.33 10.34 -8.66 9.68 -9 9 C-4.545 8.505 -4.545 8.505 0 8 C0.33 6.35 0.66 4.7 1 3 C0.34 2.67 -0.32 2.34 -1 2 C-0.67 1.34 -0.34 0.68 0 0 Z " fill="#1B75BC" transform="translate(161,125)"/>
<path d="M0 0 C5.67915033 2.38524314 9.31230932 7.28227707 12.3125 12.5 C13.97233483 19.8770437 12.82175732 25.6094301 8.875 32 C4.59726984 36.96808431 -1.1680921 39.68318844 -7.625 40.375 C-14.40954441 39.64808453 -19.33879555 36.78620445 -24.125 32 C-27.8828194 26.68320908 -29.21917765 21.44098391 -28.125 15 C-25.97209852 8.03173306 -21.3703405 3.48776954 -15.171875 -0.14453125 C-10.39874408 -2.13940849 -4.86391185 -1.46674385 0 0 Z " fill="#1C76BC" transform="translate(133.125,95)"/>
<path d="M0 0 C3.895058 2.96220798 6.68461204 7.06453658 8.859375 11.4140625 C9.42368499 17.95788794 9.37961154 23.69367812 5.859375 29.4140625 C0.48781153 34.9870596 -3.40930937 37.54511047 -11.265625 37.8515625 C-18.07146324 37.7832765 -22.32498081 36.25046378 -27.140625 31.4140625 C-31.30349966 26.32359076 -31.82910834 20.74422218 -31.5859375 14.31640625 C-30.63823963 8.13974382 -27.46887577 4.18678722 -22.578125 0.4765625 C-15.80821089 -4.13573464 -7.02783426 -3.90747585 0 0 Z " fill="#1A75BC" transform="translate(91.140625,80.5859375)"/>
<path d="M0 0 C4.27036843 2.70318468 7.09392476 6.6171342 9.01171875 11.2734375 C9.8054059 17.73368173 9.68708693 23.87459205 6.35546875 29.5859375 C3.31528537 33.40384221 -0.40000411 35.74401179 -4.98828125 37.2734375 C-10.74795283 37.74251623 -16.10272939 38.13050653 -21.42578125 35.7109375 C-27.66735983 29.77382617 -31.0070247 25.87982503 -31.42578125 17.0859375 C-31.36684785 10.78848232 -29.19414378 6.86078416 -24.98828125 2.2734375 C-17.45272515 -4.25014944 -8.65710919 -4.26056683 0 0 Z " fill="#1A75BC" transform="translate(181.98828125,80.7265625)"/>
<path d="M0 0 C19.14 0 38.28 0 58 0 C58 6.6 58 13.2 58 20 C44.14 20 30.28 20 16 20 C15.67 20.66 15.34 21.32 15 22 C12.57142857 15.71428571 12.57142857 15.71428571 14 12 C17 13 17 13 18 14 C18.66 13.67 19.32 13.34 20 13 C20.66 13.33 21.32 13.66 22 14 C22.33 13.34 22.66 12.68 23 12 C23.66 12.33 24.32 12.66 25 13 C25.99 12.67 26.98 12.34 28 12 C29.32 12 30.64 12 32 12 C32.33 8.7 32.66 5.4 33 2 C22.11 1.67 11.22 1.34 0 1 C0 0.67 0 0.34 0 0 Z " fill="#BEC2C3" transform="translate(193,124)"/>
<path d="M0 0 C5.28 0 10.56 0 16 0 C16.33 0.66 16.66 1.32 17 2 C15.35 2.99 13.7 3.98 12 5 C12 4.34 12 3.68 12 3 C7.39257135 4.21044132 7.39257135 4.21044132 3 6 C4.98 6.66 6.96 7.32 9 8 C8.67 7.34 8.34 6.68 8 6 C8.99 6 9.98 6 11 6 C11 6.66 11 7.32 11 8 C11.99 8.33 12.98 8.66 14 9 C13.67 10.32 13.34 11.64 13 13 C12.34 12.67 11.68 12.34 11 12 C13.5654594 14.5654594 15.47686668 14.54046087 19 15 C19.33 14.34 19.66 13.68 20 13 C20.33 13.33 20.66 13.66 21 14 C22.41570123 14.08651611 23.835595 14.10704904 25.25390625 14.09765625 C26.10791016 14.09443359 26.96191406 14.09121094 27.84179688 14.08789062 C29.18854492 14.07532227 29.18854492 14.07532227 30.5625 14.0625 C31.46419922 14.05798828 32.36589844 14.05347656 33.29492188 14.04882812 C35.53001314 14.03700225 37.76497437 14.0205222 40 14 C40.33 13.34 40.66 12.68 41 12 C38.525 11.505 38.525 11.505 36 11 C35.67 11.66 35.34 12.32 35 13 C34.15901344 8.98195309 33.94595055 5.98196457 35 2 C37.31 2.66 39.62 3.32 42 4 C42.10957031 4.69867188 42.21914062 5.39734375 42.33203125 6.1171875 C42.49058594 7.02726563 42.64914063 7.93734375 42.8125 8.875 C42.96332031 9.77992188 43.11414063 10.68484375 43.26953125 11.6171875 C43.83051301 14.34412478 43.83051301 14.34412478 47 16 C47 16.66 47 17.32 47 18 C42.3354534 19.18213123 37.81978846 19.1445465 33.04296875 19.1328125 C32.18117508 19.13376923 31.31938141 19.13472595 30.43147278 19.13571167 C28.61178514 19.13639064 26.79209506 19.13455612 24.97241211 19.13037109 C22.20746318 19.1250385 19.44267814 19.13031557 16.67773438 19.13671875 C14.90364548 19.13605754 13.12955668 19.13477548 11.35546875 19.1328125 C10.12850533 19.13584885 10.12850533 19.13584885 8.87675476 19.13894653 C3.8329799 19.11866973 -1.00649637 18.71891603 -6 18 C-6.33 17.01 -6.66 16.02 -7 15 C-5.68 15 -4.36 15 -3 15 C-2.67 14.34 -2.34 13.68 -2 13 C-1.443125 13.165 -0.88625 13.33 -0.3125 13.5 C2.18691249 14.04041351 4.45045662 14.07082065 7 14 C7 13.34 7 12.68 7 12 C6.195625 12.20625 5.39125 12.4125 4.5625 12.625 C0.13444105 13.09111147 -3.80302227 12.51091198 -8 11 C-8.33 10.34 -8.66 9.68 -9 9 C-4.545 8.505 -4.545 8.505 0 8 C0.33 6.35 0.66 4.7 1 3 C0.34 2.67 -0.32 2.34 -1 2 C-0.67 1.34 -0.34 0.68 0 0 Z " fill="#3B7096" transform="translate(161,125)"/>
<path d="M0 0 C2.21650494 -0.00218303 4.43250901 -0.02034818 6.64892578 -0.03930664 C8.06949701 -0.04224175 9.49007058 -0.04422576 10.91064453 -0.04516602 C12.19438965 -0.0492749 13.47813477 -0.05338379 14.80078125 -0.05761719 C18.32312706 0.18305951 21.07874809 0.91097288 24.35595703 2.18530273 C24.35595703 2.51530273 24.35595703 2.84530273 24.35595703 3.18530273 C13.79595703 3.18530273 3.23595703 3.18530273 -7.64404297 3.18530273 C-7.31404297 6.15530273 -6.98404297 9.12530273 -6.64404297 12.18530273 C-7.75779297 12.16467773 -8.87154297 12.14405273 -10.01904297 12.12280273 C-13.47620218 11.92149556 -13.47620218 11.92149556 -15.64404297 13.18530273 C-14.08437705 13.55174851 -12.52111646 13.90291135 -10.95654297 14.24780273 C-10.08642578 14.4450293 -9.21630859 14.64225586 -8.31982422 14.84545898 C-5.62679155 15.33544633 -5.62679155 15.33544633 -2.93701172 14.61889648 C-2.18033203 14.47581055 -1.42365234 14.33272461 -0.64404297 14.18530273 C1.35595703 16.18530273 1.35595703 16.18530273 1.35595703 18.18530273 C-2.64404297 18.18530273 -6.64404297 18.18530273 -10.64404297 18.18530273 C-11.63404297 18.51530273 -12.62404297 18.84530273 -13.64404297 19.18530273 C-13.64404297 19.84530273 -13.64404297 20.50530273 -13.64404297 21.18530273 C-11.00404297 21.18530273 -8.36404297 21.18530273 -5.64404297 21.18530273 C-5.64404297 21.51530273 -5.64404297 21.84530273 -5.64404297 22.18530273 C-7.22651004 22.26684207 -8.8102057 22.32473831 -10.39404297 22.37280273 C-11.71662109 22.42500977 -11.71662109 22.42500977 -13.06591797 22.47827148 C-16.15921729 22.1267602 -17.47255626 21.39700216 -19.64404297 19.18530273 C-19.89404297 15.49780273 -19.89404297 15.49780273 -19.64404297 12.18530273 C-20.63404297 11.85530273 -21.62404297 11.52530273 -22.64404297 11.18530273 C-21.9773763 9.8519694 -21.31070964 8.51863607 -20.64404297 7.18530273 C-20.19029297 6.13342773 -19.73654297 5.08155273 -19.26904297 3.99780273 C-17.64404297 1.18530273 -17.64404297 1.18530273 -15.99121094 0.52001953 C-10.71030903 -0.23306103 -5.32601764 -0.00058825 0 0 Z " fill="#2A73A9" transform="translate(168.64404296875,121.814697265625)"/>
<path d="M0 0 C3.96 0 7.92 0 12 0 C10.6328125 8.49609375 10.6328125 8.49609375 10 11 C9.01 11.495 9.01 11.495 8 12 C7.01 13.485 7.01 13.485 6 15 C5.67 14.01 5.34 13.02 5 12 C4.01 12.33 3.02 12.66 2 13 C0.68 13 -0.64 13 -2 13 C-2.99 13.33 -3.98 13.66 -5 14 C-5 13.34 -5 12.68 -5 12 C-5.66 12 -6.32 12 -7 12 C-7.33 12.66 -7.66 13.32 -8 14 C-8.99 14.33 -9.98 14.66 -11 15 C-11.66 11.04 -12.32 7.08 -13 3 C-8.44301001 0.721505 -6.85049146 1.01193693 -2 2 C-1.34 2.33 -0.68 2.66 0 3 C0 2.01 0 1.02 0 0 Z " fill="#70758D" transform="translate(215,125)"/>
<path d="M0 0 C0 0.66 0 1.32 0 2 C-0.73605469 2.36351562 -1.47210938 2.72703125 -2.23046875 3.1015625 C-10.73409054 7.48255655 -15.56889264 11.52445355 -19.26953125 20.51171875 C-21.34057338 27.56655211 -20.65951546 34.35223906 -17.3203125 40.8671875 C-12.81287572 48.14843153 -8.12305932 52.20021538 0 55 C0 55.99 0 56.98 0 58 C-8.15020062 57.23591869 -14.24963507 51.44701948 -19.30078125 45.453125 C-23.85494583 38.87837706 -25.07566471 30.84746302 -24 23 C-21.81617769 14.44669595 -17.00995861 7.60112799 -9.75 2.5625 C-6.14523826 0.51433992 -4.19902466 0 0 0 Z " fill="#227ABB" transform="translate(93,12)"/>
<path d="M0 0 C7.21283312 0.54096248 12.57952109 4.14079159 17.3125 9.4375 C22.8263572 16.34480481 24.76159599 23.21924622 24 32 C22.65131841 41.90021209 17.909732 48.46217007 10.03125 54.51171875 C6.67730125 56.60793672 3.9368459 57.47719344 0 57 C0 56.34 0 55.68 0 55 C0.73605469 54.62488281 1.47210938 54.24976563 2.23046875 53.86328125 C10.70737707 49.41766354 15.92868422 45.80064823 19.2734375 36.609375 C21.34120239 29.18320864 20.04587978 21.9985482 17 15 C13.11182879 8.30811349 6.77136131 5.28929117 0 2 C0 1.34 0 0.68 0 0 Z " fill="#267CBC" transform="translate(158,12)"/>
<path d="M0 0 C5.28 0 10.56 0 16 0 C16.33 0.66 16.66 1.32 17 2 C15.35 2.99 13.7 3.98 12 5 C12 4.34 12 3.68 12 3 C7.39257135 4.21044132 7.39257135 4.21044132 3 6 C4.98 6.66 6.96 7.32 9 8 C8.67 7.34 8.34 6.68 8 6 C8.99 6 9.98 6 11 6 C11 6.66 11 7.32 11 8 C11.99 8.33 12.98 8.66 14 9 C13.67 10.32 13.34 11.64 13 13 C12.34 12.67 11.68 12.34 11 12 C10.9071875 13.175625 10.9071875 13.175625 10.8125 14.375 C10 17 10 17 7.8125 18.1875 C4.65238676 19.1004216 2.43988431 19.01685353 -0.8125 18.625 C-2.27623047 18.45871094 -2.27623047 18.45871094 -3.76953125 18.2890625 C-4.50558594 18.19367188 -5.24164063 18.09828125 -6 18 C-6.33 17.01 -6.66 16.02 -7 15 C-5.68 15 -4.36 15 -3 15 C-2.67 14.34 -2.34 13.68 -2 13 C-1.443125 13.165 -0.88625 13.33 -0.3125 13.5 C2.18691249 14.04041351 4.45045662 14.07082065 7 14 C7 13.34 7 12.68 7 12 C6.195625 12.20625 5.39125 12.4125 4.5625 12.625 C0.13444105 13.09111147 -3.80302227 12.51091198 -8 11 C-8.33 10.34 -8.66 9.68 -9 9 C-4.545 8.505 -4.545 8.505 0 8 C0.33 6.35 0.66 4.7 1 3 C0.34 2.67 -0.32 2.34 -1 2 C-0.67 1.34 -0.34 0.68 0 0 Z " fill="#2F4F65" transform="translate(161,125)"/>
<path d="M0 0 C0.89203125 0.01804687 1.7840625 0.03609375 2.703125 0.0546875 C3.71632812 0.08949219 3.71632812 0.08949219 4.75 0.125 C4.58568748 6.84687591 3.66569503 10.43274565 -1.25 15.125 C-5.25012311 18.28299193 -8.22100446 18.42082327 -13.25 18.125 C-12.755 16.64 -12.755 16.64 -12.25 15.125 C-9.61 15.125 -6.97 15.125 -4.25 15.125 C-4.25 13.805 -4.25 12.485 -4.25 11.125 C-5.19875 11.33125 -6.1475 11.5375 -7.125 11.75 C-8.15625 11.87375 -9.1875 11.9975 -10.25 12.125 C-10.91 11.465 -11.57 10.805 -12.25 10.125 C-11.8517125 8.82754828 -11.43056078 7.5371019 -11 6.25 C-10.76796875 5.53070313 -10.5359375 4.81140625 -10.296875 4.0703125 C-8.03868327 -0.1258796 -4.38444826 -0.11538022 0 0 Z " fill="#898D8E" transform="translate(242.25,124.875)"/>
<path d="M0 0 C6.93 0 13.86 0 21 0 C21 8 21 8 20 10 C19.175 9.835 18.35 9.67 17.5 9.5 C11.9005103 8.7000729 6.53399154 8.61650211 1 10 C0 7 0 7 0 0 Z " fill="#277BBE" transform="translate(115,82)"/>
<path d="M0 0 C2.31 0.66 4.62 1.32 7 2 C7.10957031 2.69867188 7.21914062 3.39734375 7.33203125 4.1171875 C7.49058594 5.02726563 7.64914063 5.93734375 7.8125 6.875 C7.96332031 7.77992188 8.11414063 8.68484375 8.26953125 9.6171875 C8.83051301 12.34412478 8.83051301 12.34412478 12 14 C12 14.66 12 15.32 12 16 C7.28400182 16.92470553 4.32734391 17.22923777 0 15 C0.33 14.34 0.66 13.68 1 13 C2.33333333 12.66666667 3.66666667 12.33333333 5 12 C5.33 11.34 5.66 10.68 6 10 C4.35 9.67 2.7 9.34 1 9 C0.67 9.66 0.34 10.32 0 11 C-0.84098656 6.98195309 -1.05404945 3.98196457 0 0 Z " fill="#2A4B65" transform="translate(196,127)"/>
<path d="M0 0 C3.83475164 0.21912867 4.94164113 0.94028394 7.6875 3.75 C11.37531243 8.93287152 12.65282439 12.5805602 12 19 C10.0316234 24.87157793 7.04569221 28.48995325 2 32 C1.34 32 0.68 32 0 32 C0 31.01 0 30.02 0 29 C1.50246494 27.75883331 3.00662454 26.51951367 4.52734375 25.30078125 C6.77284013 23.31735872 7.40954747 21.95226264 8 19 C8.05690907 14.08143019 7.76204513 10.2192722 5.125 6 C2.96708147 3.85793054 2.96708147 3.85793054 0 2 C0 1.34 0 0.68 0 0 Z " fill="#247BBC" transform="translate(158,25)"/>
<path d="M0 0 C-1 3 -1 3 -3.4375 4.8125 C-6.57713373 7.49267514 -7.23733831 8.95789305 -8 13 C-8.14813093 17.85346623 -7.68196774 21.66065508 -4.5625 25.5 C-2.26691884 27.99341242 -2.26691884 27.99341242 0 29 C0 29.99 0 30.98 0 32 C-5.04401986 31.17024781 -7.11653719 27.96052097 -10 24 C-12.29956192 19.92350387 -12.95549839 15.58965896 -12 11 C-9.38300077 5.83204568 -6.37724084 0 0 0 Z " fill="#267DBD" transform="translate(93,25)"/>
<path d="M0 0 C2.64 0 5.28 0 8 0 C7.71905418 1.8141927 7.42493567 3.62635001 7.125 5.4375 C6.96257812 6.44683594 6.80015625 7.45617187 6.6328125 8.49609375 C6.42398438 9.32238281 6.21515625 10.14867187 6 11 C5.01 11.495 5.01 11.495 4 12 C3.01 13.485 3.01 13.485 2 15 C1.67 14.01 1.34 13.02 1 12 C0.01 12.33 -0.98 12.66 -2 13 C-3.32 13 -4.64 13 -6 13 C-6.66 12.34 -7.32 11.68 -8 11 C-7.01 11 -6.02 11 -5 11 C-4.67 10.01 -4.34 9.02 -4 8 C-3.34 8.33 -2.68 8.66 -2 9 C-2 9.66 -2 10.32 -2 11 C-1.34 11 -0.68 11 0 11 C-0.37125 9.9275 -0.7425 8.855 -1.125 7.75 C-2 4 -2 4 -1.125 1.5625 C-0.75375 1.046875 -0.3825 0.53125 0 0 Z " fill="#9CA0A1" transform="translate(219,125)"/>
<path d="M0 0 C1.98 0.66 3.96 1.32 6 2 C5.67 1.34 5.34 0.68 5 0 C5.99 0 6.98 0 8 0 C8 0.66 8 1.32 8 2 C8.99 2.33 9.98 2.66 11 3 C10.67 4.32 10.34 5.64 10 7 C9.34 6.67 8.68 6.34 8 6 C7.9071875 7.175625 7.9071875 7.175625 7.8125 8.375 C7 11 7 11 4.8125 12.1875 C1.65238676 13.1004216 -0.56011569 13.01685353 -3.8125 12.625 C-5.27623047 12.45871094 -5.27623047 12.45871094 -6.76953125 12.2890625 C-7.50558594 12.19367188 -8.24164063 12.09828125 -9 12 C-9.33 11.01 -9.66 10.02 -10 9 C-8.68 9 -7.36 9 -6 9 C-5.67 8.34 -5.34 7.68 -5 7 C-4.443125 7.165 -3.88625 7.33 -3.3125 7.5 C-0.81308751 8.04041351 1.45045662 8.07082065 4 8 C4 7.34 4 6.68 4 6 C3.34 5.67 2.68 5.34 2 5 C2 4.34 2 3.68 2 3 C1.34 3 0.68 3 0 3 C0 2.01 0 1.02 0 0 Z " fill="#2B4D66" transform="translate(164,131)"/>
<path d="M0 0 C2.64 0 5.28 0 8 0 C7.38125 0.165 6.7625 0.33 6.125 0.5 C2.72243051 2.90181375 2.77387974 6.00162134 2 10 C4.46278801 11.231394 6.2795055 11.07159196 9 11 C9 12.32 9 13.64 9 15 C5.92382812 15.29296875 5.92382812 15.29296875 2.84765625 15.5859375 C2.23792969 15.72257813 1.62820312 15.85921875 1 16 C0.67 16.66 0.34 17.32 0 18 C-1.32 17.34 -2.64 16.68 -4 16 C-3.01 15.34 -2.02 14.68 -1 14 C-1.20625 13.175 -1.4125 12.35 -1.625 11.5 C-2.0940915 7.12181268 -1.23317492 4.20730266 0 0 Z " fill="#949899" transform="translate(229,125)"/>
<path d="M0 0 C0.88042969 0.22816406 1.76085937 0.45632812 2.66796875 0.69140625 C3.82941406 0.97886719 4.99085938 1.26632813 6.1875 1.5625 C7.33605469 1.85253906 8.48460937 2.14257812 9.66796875 2.44140625 C12.9219411 2.98691392 14.83995069 2.66793227 18 2 C20 4 20 4 20 6 C16 6 12 6 8 6 C7.01 6.33 6.02 6.66 5 7 C5 7.66 5 8.32 5 9 C7.64 9 10.28 9 13 9 C13 9.33 13 9.66 13 10 C11.41753293 10.08153933 9.83383727 10.13943557 8.25 10.1875 C7.36828125 10.22230469 6.4865625 10.25710937 5.578125 10.29296875 C2.55328417 9.94923684 1.24416398 8.99772541 -1 7 C-0.67 4.69 -0.34 2.38 0 0 Z " fill="#959CA0" transform="translate(150,134)"/>
<path d="M0 0 C7.26 0 14.52 0 22 0 C22 1.32 22 2.64 22 4 C14.74 4 7.48 4 0 4 C0 2.68 0 1.36 0 0 Z " fill="#C5C6C7" transform="translate(0,194)"/>
<path d="M0 0 C-0.99 0.495 -0.99 0.495 -2 1 C-2.061875 2.27875 -2.12375 3.5575 -2.1875 4.875 C-2.39453125 7.046875 -2.39453125 7.046875 -3 9 C-6.375 11.125 -6.375 11.125 -10 12 C-10.99 11.34 -11.98 10.68 -13 10 C-10.72952053 2.60374113 -10.72952053 2.60374113 -8.1875 0.5 C-5.40992981 -0.13487319 -2.83841014 -0.12901864 0 0 Z " fill="#7C8081" transform="translate(243,125)"/>
<path d="M0 0 C-1.375 2 -1.375 2 -3 4 C-3.66 4 -4.32 4 -5 4 C-5.12375 4.7425 -5.2475 5.485 -5.375 6.25 C-5.95486701 8.80141485 -6.73708739 10.7267573 -8 13 C-8.33 13 -8.66 13 -9 13 C-9.66 9.04 -10.32 5.08 -11 1 C-6.46780033 -1.26609984 -4.82227075 -0.92735976 0 0 Z " fill="#6C7386" transform="translate(213,127)"/>
<path d="M0 0 C1.67542976 0.28604898 3.34385343 0.61781233 5 1 C4.67 1.99 4.34 2.98 4 4 C-2.27 4 -8.54 4 -15 4 C-15 3.01 -15 2.02 -15 1 C-14.00097656 1.01160156 -13.00195312 1.02320313 -11.97265625 1.03515625 C-10.68230469 1.04417969 -9.39195312 1.05320313 -8.0625 1.0625 C-6.13083984 1.07990234 -6.13083984 1.07990234 -4.16015625 1.09765625 C-1.13701597 1.36532549 -1.13701597 1.36532549 0 0 Z " fill="#AABFCD" transform="translate(197,136)"/>
<path d="M0 0 C0.99 0.33 1.98 0.66 3 1 C3.23994929 5.07913787 2.62323754 8.24092359 1 12 C-2 13 -2 13 -6 13 C-6.66 12.34 -7.32 11.68 -8 11 C-7.01 11 -6.02 11 -5 11 C-4.67 10.01 -4.34 9.02 -4 8 C-3.34 8.33 -2.68 8.66 -2 9 C-2 9.66 -2 10.32 -2 11 C-1.34 11 -0.68 11 0 11 C-0.37125 9.9275 -0.7425 8.855 -1.125 7.75 C-2 4 -2 4 -1.125 1.5625 C-0.75375 1.046875 -0.3825 0.53125 0 0 Z " fill="#85918D" transform="translate(219,125)"/>
<path d="M0 0 C1.98 0.66 3.96 1.32 6 2 C5.67 1.34 5.34 0.68 5 0 C5.99 0 6.98 0 8 0 C8 0.66 8 1.32 8 2 C8.99 2.33 9.98 2.66 11 3 C10.67 4.32 10.34 5.64 10 7 C9.34 6.67 8.68 6.34 8 6 C7.67 6.99 7.34 7.98 7 9 C3.9890638 6.9927092 3.36983503 6.16115776 2 3 C1.34 3 0.68 3 0 3 C0 2.01 0 1.02 0 0 Z " fill="#3F637D" transform="translate(164,131)"/>
<path d="M0 0 C1.32 0.33 2.64 0.66 4 1 C4 1.99 4 2.98 4 4 C5.3921875 3.690625 5.3921875 3.690625 6.8125 3.375 C10 3 10 3 13 5 C12.67 5.66 12.34 6.32 12 7 C9.03 7 6.06 7 3 7 C2.67 7.99 2.34 8.98 2 10 C0.68373308 6.38026598 0 3.90432869 0 0 Z " fill="#9AA0AC" transform="translate(206,136)"/>
<path d="M0 0 C0.33 2.97 0.66 5.94 1 9 C-4.75 9.125 -4.75 9.125 -7 8 C-7 6.35 -7 4.7 -7 3 C-6.67 4.32 -6.34 5.64 -6 7 C-5.71125 6.030625 -5.4225 5.06125 -5.125 4.0625 C-3.88188811 0.6784732 -3.56000107 0 0 0 Z " fill="#6C8697" transform="translate(161,125)"/>
<path d="M0 0 C6.27 0 12.54 0 19 0 C19 0.99 19 1.98 19 3 C18.41992188 2.90460938 17.83984375 2.80921875 17.2421875 2.7109375 C12.23911581 2.00093063 8.75977038 1.92522829 4 4 C2.68 2.68 1.36 1.36 0 0 Z " fill="#ABAFB3" transform="translate(196,125)"/>
<path d="M0 0 C2.31 0.66 4.62 1.32 7 2 C6.67 2.66 6.34 3.32 6 4 C5.34 3.67 4.68 3.34 4 3 C3.67 4.98 3.34 6.96 3 9 C2.34 9 1.68 9 1 9 C0.67 9.66 0.34 10.32 0 11 C-0.84098656 6.98195309 -1.05404945 3.98196457 0 0 Z " fill="#2F5172" transform="translate(196,127)"/>
<path d="M0 0 C0 3.3 0 6.6 0 10 C-1.32 10.33 -2.64 10.66 -4 11 C-4.66 10.34 -5.32 9.68 -6 9 C-5.5504955 7.68445015 -5.09010284 6.37261642 -4.625 5.0625 C-4.36976563 4.33160156 -4.11453125 3.60070312 -3.8515625 2.84765625 C-2.95691386 0.90651493 -2.28662459 0 0 0 Z " fill="#717576" transform="translate(236,126)"/>
<path d="M0 0 C0.78503906 -0.00257813 1.57007813 -0.00515625 2.37890625 -0.0078125 C4.4375 0.125 4.4375 0.125 6.4375 1.125 C6.4375 1.785 6.4375 2.445 6.4375 3.125 C4.13515978 4.53696151 2.84278247 5.15497047 0.11328125 4.953125 C-0.66660156 4.76234375 -1.44648438 4.5715625 -2.25 4.375 C-3.43142578 4.10429687 -3.43142578 4.10429687 -4.63671875 3.828125 C-6.5625 3.125 -6.5625 3.125 -7.5625 1.125 C-4.73533905 0.18261302 -2.93073877 -0.00965647 0 0 Z " fill="#204055" transform="translate(159.5625,132.875)"/>
<path d="M0 0 C0.66 1.65 1.32 3.3 2 5 C1.01 5 0.02 5 -1 5 C-1.33 4.67 -1.66 4.34 -2 4 C-2.33 4.66 -2.66 5.32 -3 6 C-4.2065625 5.7525 -4.2065625 5.7525 -5.4375 5.5 C-7.7284443 4.96808161 -7.7284443 4.96808161 -9 5 C-9.33 4.01 -9.66 3.02 -10 2 C-9.236875 1.855625 -8.47375 1.71125 -7.6875 1.5625 C-0.22222222 0 -0.22222222 0 0 0 Z " fill="#BCC6CD" transform="translate(173,128)"/>
<path d="M0 0 C0.66 0 1.32 0 2 0 C1.83560987 6.72505081 0.78944649 10.21055351 -4 15 C-4.66 14.01 -5.32 13.02 -6 12 C-5.38125 11.690625 -4.7625 11.38125 -4.125 11.0625 C-0.92315624 7.95482812 -0.68447192 4.29596194 0 0 Z " fill="#9CA0A1" transform="translate(245,125)"/>
<path d="M0 0 C1.32 0.66 2.64 1.32 4 2 C3.67 4.97 3.34 7.94 3 11 C2.67 9.68 2.34 8.36 2 7 C1.01 6.67 0.02 6.34 -1 6 C-0.67 4.02 -0.34 2.04 0 0 Z " fill="#1E394C" transform="translate(200,130)"/>
<path d="M0 0 C1.34173403 0.92543709 2.67320159 1.86577405 4 2.8125 C5.11375 3.59560547 5.11375 3.59560547 6.25 4.39453125 C7.11625 5.18923828 7.11625 5.18923828 8 6 C8 6.99 8 7.98 8 9 C3.75177626 8.52797514 1.80010291 6.03344482 -1 3 C-0.67 2.01 -0.34 1.02 0 0 Z " fill="#227ABB" transform="translate(85,48)"/>
<path d="M0 0 C2.64 0 5.28 0 8 0 C8 1.32 8 2.64 8 4 C5.36 4 2.72 4 0 4 C0 2.68 0 1.36 0 0 Z " fill="#BEC1C1" transform="translate(230,136)"/>
<path d="M0 0 C0 0.99 0 1.98 0 3 C-3.3 3 -6.6 3 -10 3 C-10 2.01 -10 1.02 -10 0 C-6.42355152 -1.2380014 -3.66305234 -0.74926071 0 0 Z " fill="#9EACB6" transform="translate(170,137)"/>
<path d="M0 0 C0.66 0 1.32 0 2 0 C1.88652381 1.97986082 1.7589065 3.95891598 1.625 5.9375 C1.52058594 7.59072266 1.52058594 7.59072266 1.4140625 9.27734375 C1.27742187 10.17582031 1.14078125 11.07429687 1 12 C0.01 12.495 0.01 12.495 -1 13 C-2.16045439 8.74500059 -1.82904781 5.31104861 -1 1 C-0.67 0.67 -0.34 0.34 0 0 Z " fill="#B3B7B8" transform="translate(227,125)"/>
<path d="M0 0 C0 3 0 3 -1.75 5.04296875 C-2.4925 5.75066406 -3.235 6.45835937 -4 7.1875 C-4.7425 7.90292969 -5.485 8.61835938 -6.25 9.35546875 C-7.11625 10.16951172 -7.11625 10.16951172 -8 11 C-8.66 10.67 -9.32 10.34 -10 10 C-8.90033225 8.70450101 -7.79508199 7.41373929 -6.6875 6.125 C-6.07261719 5.40570313 -5.45773438 4.68640625 -4.82421875 3.9453125 C-3 2 -3 2 0 0 Z " fill="#267BBC" transform="translate(101,141)"/>
<path d="M0 0 C0.99 0.33 1.98 0.66 3 1 C3.99 0.67 4.98 0.34 6 0 C6 1.32 6 2.64 6 4 C2.37 4 -1.26 4 -5 4 C-4.67 3.01 -4.34 2.02 -4 1 C-2.02 1.495 -2.02 1.495 0 2 C0 1.34 0 0.68 0 0 Z " fill="#CDCED0" transform="translate(215,136)"/>
<path d="M0 0 C0 0.99 0 1.98 0 3 C-2.64 3 -5.28 3 -8 3 C-8 2.01 -8 1.02 -8 0 C-4.71023192 -1.09658936 -3.28696233 -0.79953138 0 0 Z " fill="#A4BBCA" transform="translate(180,137)"/>
<path d="M0 0 C-0.59646305 3.34019306 -1.68294159 5.50470633 -4 8 C-4.99 8 -5.98 8 -7 8 C-4.18918919 0 -4.18918919 0 0 0 Z " fill="#1774B7" transform="translate(80,19)"/>
<path d="M0 0 C2.97 0 5.94 0 9 0 C9.33 0.66 9.66 1.32 10 2 C7.525 3.485 7.525 3.485 5 5 C5 4.34 5 3.68 5 3 C2.525 2.01 2.525 2.01 0 1 C0 0.67 0 0.34 0 0 Z " fill="#2E5672" transform="translate(168,125)"/>
<path d="M0 0 C0 1.98 0 3.96 0 6 C-1.32 5.67 -2.64 5.34 -4 5 C-4.33 3.68 -4.66 2.36 -5 1 C-3 0 -3 0 0 0 Z " fill="#6A6E70" transform="translate(207,127)"/>
<path d="M0 0 C0.99 0 1.98 0 3 0 C2.21681311 3.91593446 0.60820142 7.36406635 -1 11 C-2.41687119 6.74938644 -1.19320039 4.28148375 0 0 Z " fill="#9FA3A4" transform="translate(229,125)"/>
<path d="M0 0 C0.66 0.33 1.32 0.66 2 1 C2.625 3.0625 2.625 3.0625 3 5 C1.02 5 -0.96 5 -3 5 C-3.33 4.01 -3.66 3.02 -4 2 C-2.68 2 -1.36 2 0 2 C0 1.34 0 0.68 0 0 Z " fill="#606769" transform="translate(158,138)"/>
<path d="M0 0 C0.33 1.32 0.66 2.64 1 4 C1.33 2.68 1.66 1.36 2 0 C2.99 0.33 3.98 0.66 5 1 C5 2.66666667 5 4.33333333 5 6 C3.35 5.67 1.7 5.34 0 5 C0 3.35 0 1.7 0 0 Z " fill="#C8D2D7" transform="translate(154,128)"/>
<path d="M0 0 C2.97 0.495 2.97 0.495 6 1 C5.67 1.99 5.34 2.98 5 4 C3.35 4 1.7 4 0 4 C0 2.68 0 1.36 0 0 Z " fill="#DBDCDD" transform="translate(223,136)"/>
<path d="M0 0 C1.32 0.33 2.64 0.66 4 1 C3.25 2.9375 3.25 2.9375 2 5 C-0.125 5.75 -0.125 5.75 -2 6 C-1.34 4.02 -0.68 2.04 0 0 Z " fill="#2E81BE" transform="translate(72,27)"/>
<path d="M0 0 C1.5625 1.1875 1.5625 1.1875 3 3 C2.6875 5.6875 2.6875 5.6875 2 8 C-0.36556709 5.63443291 -0.58244041 4.25696479 -1 1 C-0.67 0.67 -0.34 0.34 0 0 Z " fill="#1875B8" transform="translate(177,26)"/>
<path d="M0 0 C-1.04874998 2.62187494 -1.64931313 3.79371361 -4.125 5.25 C-4.74375 5.4975 -5.3625 5.745 -6 6 C-5.6875 4.125 -5.6875 4.125 -5 2 C-2 0 -2 0 0 0 Z " fill="#1474BA" transform="translate(175,58)"/>
<path d="M0 0 C0.66 0.33 1.32 0.66 2 1 C2 1.66 2 2.32 2 3 C2.66 3.33 3.32 3.66 4 4 C1.39417629 4.93065133 0.35801776 5.14917407 -2.25 4.0625 C-2.8275 3.711875 -3.405 3.36125 -4 3 C-3.01 3 -2.02 3 -1 3 C-0.67 2.01 -0.34 1.02 0 0 Z " fill="#9598A4" transform="translate(215,133)"/>
<path d="M0 0 C2.49361571 1.20381448 4.68143083 2.45428722 7 4 C6.67 4.66 6.34 5.32 6 6 C4.68 5.67 3.36 5.34 2 5 C2 4.34 2 3.68 2 3 C1.34 3 0.68 3 0 3 C0 2.01 0 1.02 0 0 Z " fill="#3F5B6F" transform="translate(164,131)"/>
<path d="M0 0 C1.2065625 0.0309375 1.2065625 0.0309375 2.4375 0.0625 C1.0625 2.5625 1.0625 2.5625 -0.5625 5.0625 C-1.2225 5.0625 -1.8825 5.0625 -2.5625 5.0625 C-3.125 3.125 -3.125 3.125 -3.5625 1.0625 C-2.5625 0.0625 -2.5625 0.0625 0 0 Z " fill="#94A397" transform="translate(224.5625,124.9375)"/>
<path d="M0 0 C1.98 0 3.96 0 6 0 C6 1.32 6 2.64 6 4 C1.125 2.25 1.125 2.25 0 0 Z " fill="#959C9C" transform="translate(196,125)"/>
</svg>
