<?xml version="1.0" encoding="UTF-8"?>
<svg version="1.1" xmlns="http://www.w3.org/2000/svg" width="225" height="225">
<path d="M0 0 C74.25 0 148.5 0 225 0 C225 74.25 225 148.5 225 225 C150.75 225 76.5 225 0 225 C0 150.75 0 76.5 0 0 Z " fill="#FDFDFD" transform="translate(0,0)"/>
<path d="M0 0 C1.27423828 -0.00193359 1.27423828 -0.00193359 2.57421875 -0.00390625 C3.91419922 0.00189453 3.91419922 0.00189453 5.28125 0.0078125 C6.17457031 0.00394531 7.06789062 0.00007813 7.98828125 -0.00390625 C8.83777344 -0.00261719 9.68726563 -0.00132813 10.5625 0 C11.34689453 0.00112793 12.13128906 0.00225586 12.93945312 0.00341797 C14.78125 0.1328125 14.78125 0.1328125 15.78125 1.1328125 C15.88535433 2.87117541 15.91978527 4.61376027 15.92651367 6.35522461 C15.93289352 7.4698558 15.93927338 8.584487 15.94584656 9.7328949 C15.94695938 10.94639114 15.9480722 12.15988739 15.94921875 13.41015625 C15.95254715 14.64697647 15.95587555 15.88379669 15.95930481 17.15809631 C15.9643793 19.78011705 15.96671298 22.40214428 15.96655273 25.02416992 C15.96647129 27.71987592 15.97343657 30.41541269 15.98706055 33.11108398 C16.00530346 36.98166148 16.01028586 40.85204017 16.01171875 44.72265625 C16.01890427 45.93412827 16.02608978 47.14560028 16.03349304 48.39378357 C16.03041641 49.51156693 16.02733978 50.62935028 16.02416992 51.78100586 C16.02559494 52.76838242 16.02701996 53.75575897 16.02848816 54.77305603 C15.78125 57.1328125 15.78125 57.1328125 13.78125 59.1328125 C10.90782939 59.33138222 8.15263012 59.41110196 5.28125 59.3828125 C4.10369141 59.39441406 4.10369141 59.39441406 2.90234375 59.40625 C-2.96544213 59.38612037 -2.96544213 59.38612037 -5.21875 57.1328125 C-5.46598816 54.77305603 -5.46598816 54.77305603 -5.46166992 51.78100586 C-5.46474655 50.6632225 -5.46782318 49.54543915 -5.47099304 48.39378357 C-5.46380753 47.18231155 -5.45662201 45.97083954 -5.44921875 44.72265625 C-5.44876053 43.4848793 -5.44830231 42.24710236 -5.4478302 40.97181702 C-5.4440286 37.67923203 -5.43100824 34.38683891 -5.41436768 31.09429932 C-5.40091164 27.73929603 -5.40409184 24.3843262 -5.40429688 21.02929688 C-5.39938168 18.48958133 -5.39355335 15.94986735 -5.38671875 13.41015625 C-5.38560593 12.19666 -5.3844931 10.98316376 -5.38334656 9.7328949 C-5.37696671 8.6182637 -5.37058685 7.50363251 -5.36401367 6.35522461 C-5.36020187 5.36864365 -5.35639008 4.38206268 -5.35246277 3.36558533 C-5.11897193 -0.53330934 -3.46753382 0.00498618 0 0 Z " fill="#060606" transform="translate(135.21875,91.8671875)"/>
<path d="M0 0 C1.27423828 -0.00193359 1.27423828 -0.00193359 2.57421875 -0.00390625 C3.91419922 0.00189453 3.91419922 0.00189453 5.28125 0.0078125 C6.17457031 0.00394531 7.06789063 0.00007813 7.98828125 -0.00390625 C8.83777344 -0.00261719 9.68726562 -0.00132813 10.5625 0 C11.34689453 0.00112793 12.13128906 0.00225586 12.93945312 0.00341797 C14.78125 0.1328125 14.78125 0.1328125 15.78125 1.1328125 C15.89485293 4.21192909 15.94544105 7.26776716 15.94921875 10.34765625 C15.95254715 11.27373184 15.95587555 12.19980743 15.95930481 13.15394592 C15.96437808 15.11686708 15.96671301 17.0797969 15.96655273 19.04272461 C15.96873817 22.05401761 15.98688674 25.06494384 16.00585938 28.07617188 C16.00879336 29.97916541 16.01077812 31.88216069 16.01171875 33.78515625 C16.01890427 34.69039536 16.02608978 35.59563446 16.03349304 36.52830505 C16.03041641 37.36579788 16.02733978 38.20329071 16.02416992 39.06616211 C16.02559494 39.80483017 16.02701996 40.54349823 16.02848816 41.30455017 C15.78125 43.1328125 15.78125 43.1328125 13.78125 45.1328125 C10.90782939 45.33138222 8.15263012 45.41110196 5.28125 45.3828125 C4.10369141 45.39441406 4.10369141 45.39441406 2.90234375 45.40625 C-2.96544213 45.38612037 -2.96544213 45.38612037 -5.21875 43.1328125 C-5.46598816 41.30455017 -5.46598816 41.30455017 -5.46166992 39.06616211 C-5.46474655 38.22866928 -5.46782318 37.39117645 -5.47099304 36.52830505 C-5.46380753 35.62306595 -5.45662201 34.71782684 -5.44921875 33.78515625 C-5.44876053 32.85812393 -5.44830231 31.93109161 -5.4478302 30.97596741 C-5.44480654 29.01480836 -5.43691685 27.05365175 -5.42456055 25.0925293 C-5.40630372 22.07917848 -5.40405082 19.06613472 -5.40429688 16.05273438 C-5.39938185 14.15103899 -5.39355359 12.2493457 -5.38671875 10.34765625 C-5.38560593 9.44039291 -5.3844931 8.53312958 -5.38334656 7.59837341 C-5.32530355 0.00765759 -5.32530355 0.00765759 0 0 Z " fill="#040404" transform="translate(107.21875,105.8671875)"/>
<path d="M0 0 C1.13074913 4.03324531 0.87257279 6.18923468 -0.8125 10 C-1.34810547 11.2375 -1.34810547 11.2375 -1.89453125 12.5 C-2.25933594 13.325 -2.62414062 14.15 -3 15 C-3.32484375 15.90878906 -3.6496875 16.81757812 -3.984375 17.75390625 C-5 20 -5 20 -7.4375 20.9375 C-10 21 -10 21 -13 19 C-13.45375 19.495 -13.9075 19.99 -14.375 20.5 C-16 22 -16 22 -18 22 C-18 22.66 -18 23.32 -18 24 C-18.66 24 -19.32 24 -20 24 C-20.495 25.485 -20.495 25.485 -21 27 C-22.70703125 28.68359375 -22.70703125 28.68359375 -24.8125 30.4375 C-27.02245611 32.29087782 -28.95037949 33.93713994 -30.7421875 36.20703125 C-34.04624056 38.8308381 -37.28939744 38.33693223 -41.3125 38.25 C-47.16752956 38.29816107 -47.16752956 38.29816107 -52.42578125 40.55078125 C-54.69720038 43.23993263 -56.48750311 46.19682511 -58.37915039 49.16137695 C-60.843377 52.50425302 -62.65419735 54.67369832 -66.78417969 55.67504883 C-69.99567403 55.8591521 -73.10080473 55.79798179 -76.3125 55.625 C-77.95702148 55.59599609 -77.95702148 55.59599609 -79.63476562 55.56640625 C-87.66136905 55.33863095 -87.66136905 55.33863095 -90 53 C-89.46428571 49.46428571 -89.46428571 49.46428571 -88 48 C-86.56433891 48.00075107 -85.12862435 48.05852462 -83.6953125 48.140625 C-72.6957037 48.80577457 -72.6957037 48.80577457 -63.23046875 44.1484375 C-60.41477399 41.00720311 -58.16927043 37.61090299 -56 34 C-55.34 33.01 -54.68 32.02 -54 31 C-51.95855954 31.02735951 -49.91600786 31.06877643 -47.87817383 31.19311523 C-40.80523196 31.53044758 -35.72004412 31.11456627 -30.18359375 26.3828125 C-26.17800081 22.50001813 -22.49292829 18.34771308 -19 14 C-19.49584595 13.08963989 -19.49584595 13.08963989 -20.00170898 12.16088867 C-21 10 -21 10 -20.97265625 7.42578125 C-20 5 -20 5 -17.55859375 3.41796875 C-11.42540802 1.00000441 -6.60627184 -0.63521845 0 0 Z " fill="#0D0D0D" transform="translate(150,61)"/>
<path d="M0 0 C0.74166633 0.00054477 1.48333265 0.00108953 2.24747372 0.00165081 C3.09860744 -0.00254368 3.94974117 -0.00673817 4.82666683 -0.01105976 C5.76232983 -0.00544025 6.69799282 0.00017925 7.66200924 0.00596905 C8.64580563 0.0040707 9.62960201 0.00217236 10.64321041 0.00021648 C13.90663691 -0.00349901 17.16984263 0.00722323 20.43324947 0.01842022 C22.69244008 0.0196116 24.9516312 0.02006527 27.21082211 0.01980877 C31.94962818 0.02137493 36.68835885 0.02967528 41.42714596 0.04307842 C47.5162986 0.06007813 53.60536834 0.06389257 59.69454193 0.06313324 C64.36035619 0.06340451 69.02615215 0.06887869 73.69196033 0.07613468 C75.93795731 0.07932761 78.18395636 0.0812902 80.42995548 0.08202839 C83.56203055 0.08418482 86.69401581 0.0929136 89.82607174 0.1036253 C90.76375896 0.10317211 91.70144619 0.10271893 92.66754818 0.10225201 C99.06486944 0.13441519 99.06486944 0.13441519 100.17934322 1.24888897 C100.30434322 3.74888897 100.30434322 3.74888897 100.17934322 6.24888897 C98.22569016 8.20254203 95.2453457 7.36911021 92.64533138 7.37330914 C91.70450207 7.36971386 90.76367275 7.36611858 89.79433346 7.36241436 C88.31644848 7.3626334 88.31644848 7.3626334 86.80870724 7.36285686 C83.53509515 7.36215729 80.26153918 7.35436282 76.98793697 7.34654522 C74.72492154 7.3446812 72.46190571 7.34325722 70.19888973 7.3422575 C64.22955374 7.33843107 58.26024191 7.32859972 52.29091549 7.31755352 C46.20489993 7.30734208 40.11888049 7.30276046 34.03285885 7.29771709 C22.08167633 7.28697756 10.13051178 7.26989965 -1.82065678 7.24888897 C-2.48065678 5.59888897 -3.14065678 3.94888897 -3.82065678 2.24888897 C-1.82065678 0.24888897 -1.82065678 0.24888897 0 0 Z " fill="#0D0D0D" transform="translate(63.82065677642822,157.7511110305786)"/>
<path d="M0 0 C3.14581423 -0.02888514 6.29159469 -0.04675923 9.4375 -0.0625 C10.33533203 -0.07087891 11.23316406 -0.07925781 12.15820312 -0.08789062 C13.01220703 -0.09111328 13.86621094 -0.09433594 14.74609375 -0.09765625 C15.93223267 -0.10551147 15.93223267 -0.10551147 17.14233398 -0.11352539 C19 0 19 0 20 1 C20.25301239 5.13962283 20.18522549 9.29105996 20.1875 13.4375 C20.19974609 14.60861328 20.21199219 15.77972656 20.22460938 16.98632812 C20.22750977 18.66178711 20.22750977 18.66178711 20.23046875 20.37109375 C20.23457764 21.40161865 20.23868652 22.43214355 20.24291992 23.49389648 C20 26 20 26 18 28 C15.12657939 28.19856972 12.37138012 28.27828946 9.5 28.25 C8.32244141 28.26160156 8.32244141 28.26160156 7.12109375 28.2734375 C1.25330787 28.25330787 1.25330787 28.25330787 -1 26 C-1.24291992 23.6015625 -1.24291992 23.6015625 -1.23046875 20.625 C-1.22853516 19.55765625 -1.22660156 18.4903125 -1.22460938 17.390625 C-1.21236328 16.27171875 -1.20011719 15.1528125 -1.1875 14 C-1.18685547 12.88109375 -1.18621094 11.7621875 -1.18554688 10.609375 C-1.14028159 2.28056319 -1.14028159 2.28056319 0 0 Z " fill="#080808" transform="translate(75,123)"/>
</svg>
