<?xml version="1.0" encoding="UTF-8"?>
<svg version="1.1" xmlns="http://www.w3.org/2000/svg" width="512" height="512">
<path d="M0 0 C0.68255859 0.1556543 1.36511719 0.31130859 2.06835938 0.47167969 C19.73609901 4.64299805 36.72949051 12.80083376 51 24 C51.5352832 24.41862305 52.07056641 24.83724609 52.62207031 25.26855469 C80.4724018 47.27798479 97.77135951 78.37253083 103.3125 113.3125 C107.22097075 148.22566657 99.31714268 185.28837466 77.4375 213.37109375 C74.74506825 216.69246885 71.90611431 219.86513284 69 223 C68.49452637 223.54930176 67.98905273 224.09860352 67.46826172 224.66455078 C59.05362339 233.70890947 49.94970615 241.24644764 39.328125 247.59765625 C32.09675789 251.95346295 28.05452546 257.78189814 26 266 C25.67 271.61 25.34 277.22 25 283 C-11.96 283 -48.92 283 -87 283 C-87.33 277.39 -87.66 271.78 -88 266 C-91.05605803 255.95866647 -95.68764317 251.8219101 -104.14453125 245.98828125 C-136.65398798 223.3517375 -157.19442033 193.12087363 -164.63989258 154.11474609 C-169.47288711 125.73278089 -164.54570384 96.71025405 -152 71 C-151.52820313 70.02804688 -151.05640625 69.05609375 -150.5703125 68.0546875 C-134.75972965 37.4161004 -106.31090143 13.82161725 -73.609375 3.171875 C-49.72673586 -4.14075961 -24.44221376 -5.78040979 0 0 Z M-48 30 C-48 35.61 -48 41.22 -48 47 C-49.32 47.185625 -50.64 47.37125 -52 47.5625 C-61.8717491 49.50864482 -71.067328 54.533664 -80 59 C-83.63 55.37 -87.26 51.74 -91 48 C-96.62303757 52.67466337 -101.79741554 57.67765667 -106.9375 62.875 C-107.71673828 63.65875 -108.49597656 64.4425 -109.29882812 65.25 C-111.20154085 67.16438581 -113.10186171 69.08108034 -115 71 C-114.62488281 71.43570313 -114.24976563 71.87140625 -113.86328125 72.3203125 C-110.54140223 76.18607599 -107.25357073 80.07657648 -104 84 C-104.53109375 85.01578125 -105.0621875 86.0315625 -105.609375 87.078125 C-112.99790038 100.39895127 -112.99790038 100.39895127 -116 115 C-121.61 115 -127.22 115 -133 115 C-133 126.22 -133 137.44 -133 149 C-127.39 149 -121.78 149 -116 149 C-115.814375 150.32 -115.62875 151.64 -115.4375 153 C-113.49135518 162.8717491 -108.466336 172.067328 -104 181 C-109.445 186.445 -109.445 186.445 -115 192 C-110.32533663 197.62303757 -105.32234333 202.79741554 -100.125 207.9375 C-99.34125 208.71673828 -98.5575 209.49597656 -97.75 210.29882812 C-95.83561419 212.20154085 -93.91891966 214.10186171 -92 216 C-91.56429687 215.62488281 -91.12859375 215.24976563 -90.6796875 214.86328125 C-86.81392401 211.54140223 -82.92342352 208.25357073 -79 205 C-77.98421875 205.53109375 -76.9684375 206.0621875 -75.921875 206.609375 C-62.60104873 213.99790038 -62.60104873 213.99790038 -48 217 C-48 222.61 -48 228.22 -48 234 C-36.78 234 -25.56 234 -14 234 C-14 228.39 -14 222.78 -14 217 C-12.68 216.814375 -11.36 216.62875 -10 216.4375 C-0.1282509 214.49135518 9.067328 209.466336 18 205 C21.63 208.63 25.26 212.26 29 216 C34.62303757 211.32533663 39.79741554 206.32234333 44.9375 201.125 C46.10635742 199.949375 46.10635742 199.949375 47.29882812 198.75 C49.20154085 196.83561419 51.10186171 194.91891966 53 193 C52.43732422 192.34644531 52.43732422 192.34644531 51.86328125 191.6796875 C48.54140223 187.81392401 45.25357073 183.92342352 42 180 C42.53109375 178.98421875 43.0621875 177.9684375 43.609375 176.921875 C50.99790038 163.60104873 50.99790038 163.60104873 54 149 C59.61 149 65.22 149 71 149 C71 137.78 71 126.56 71 115 C65.39 115 59.78 115 54 115 C53.814375 113.68 53.62875 112.36 53.4375 111 C51.49135518 101.1282509 46.466336 91.932672 42 83 C45.63 79.37 49.26 75.74 53 72 C48.32533663 66.37696243 43.32234333 61.20258446 38.125 56.0625 C36.949375 54.89364258 36.949375 54.89364258 35.75 53.70117188 C33.83561419 51.79845915 31.91891966 49.89813829 30 48 C29.56429687 48.37511719 29.12859375 48.75023437 28.6796875 49.13671875 C24.81392401 52.45859777 20.92342352 55.74642927 17 59 C15.98421875 58.46890625 14.9684375 57.9378125 13.921875 57.390625 C0.60104873 50.00209962 0.60104873 50.00209962 -14 47 C-14 41.39 -14 35.78 -14 30 C-25.22 30 -36.44 30 -48 30 Z " fill="#6FC778" transform="translate(287,86)"/>
<path d="M0 0 C6.09785123 5.0681953 9.23592186 11.36438301 10.29952431 19.20920372 C10.43369184 21.47806193 10.48493813 23.73188236 10.49926758 26.00463867 C10.51576859 26.85462936 10.53226959 27.70462006 10.54927063 28.58036804 C10.59772996 31.35962351 10.62339751 34.13837867 10.64453125 36.91796875 C10.65426153 37.87309168 10.66399181 38.82821461 10.67401695 39.81228065 C10.72462186 44.85720488 10.75752389 49.9018798 10.77563477 54.94702148 C10.79775939 60.14997977 10.88041057 65.35015755 10.97675037 70.55219555 C11.04014278 74.56459082 11.05893012 78.57631322 11.065588 82.58916664 C11.07649748 84.50743683 11.10413982 86.42568912 11.14899635 88.34346581 C11.47710251 103.37359197 11.47710251 103.37359197 7.82138062 107.39883423 C5.1472168 108.97387695 5.1472168 108.97387695 2.4851532 109.98921204 C-2.78436196 112.13248534 -5.53676134 117.70254866 -7.8125 122.6875 C-11.17788591 132.07515545 -10.74134134 140.77614549 -7 150 C-3.2300202 156.73367104 1.70026546 162.12114499 7.171875 167.5 C8.31731781 168.64263306 8.31731781 168.64263306 9.48590088 169.80834961 C11.08587776 171.40165293 12.6894238 172.99137959 14.29638672 174.57763672 C16.76412568 177.01394577 19.22077678 179.46102149 21.67578125 181.91015625 C23.23635296 183.46156766 24.7975292 185.01237125 26.359375 186.5625 C27.09581238 187.2946875 27.83224976 188.026875 28.59100342 188.78125 C29.27221252 189.45285156 29.95342163 190.12445313 30.65527344 190.81640625 C31.25450623 191.40881104 31.85373901 192.00121582 32.47113037 192.61157227 C34.89944924 194.81682588 36.06849226 195.00622657 39.4375 195.3125 C42.96526004 195.33832165 42.96526004 195.33832165 45 193.375 C46.44338054 189.94697123 46.14343927 188.586476 45 185 C42.49894484 181.84244128 39.60756265 179.123127 36.6953125 176.34765625 C35.86039276 175.52929794 35.02547302 174.71093964 34.16525269 173.86778259 C31.49680416 171.25376455 28.81272168 168.65668762 26.125 166.0625 C23.44526315 163.4710929 20.76962624 160.87607269 18.10617065 158.26792908 C16.44981937 156.64625164 14.7840885 155.03408417 13.10794067 153.43287659 C8.13262346 148.56556599 4.84615772 144.62718679 3.56640625 137.62890625 C3.55399477 131.06323277 5.19019707 126.29425171 9.47265625 121.2734375 C14.86163041 116.10104149 21.21026935 114.40604257 28.5 113.625 C46.28578846 115.53062019 57.18166849 131.074416 69.125 143.125 C72.12461471 146.15142548 75.12767986 149.17436714 78.1328125 152.1953125 C78.80386017 152.87465851 79.47490784 153.55400452 80.16629028 154.25393677 C84.04162381 158.14903041 88.0295114 161.84266194 92.18939209 165.43206787 C119.12050868 188.75360686 119.12050868 188.75360686 122 205 C122.55739069 214.34701304 121.97416385 223.35535654 120.484375 232.59375 C120.34241699 233.50479492 120.20045898 234.41583984 120.05419922 235.35449219 C119.70812079 237.57055745 119.35665914 239.7856175 119 242 C108.40332705 244.81913271 97.80604138 247.63594945 87.20798969 250.44989491 C82.28574186 251.75690325 77.36370034 253.06467761 72.44213867 254.37426758 C67.68342237 255.64049432 62.92415335 256.90462399 58.16451073 258.16736412 C56.35806044 258.6469994 54.55180304 259.12736184 52.74575233 259.60849953 C42.86427215 262.24041707 32.9875715 264.79634582 23 267 C22.75765625 266.0821875 22.5153125 265.164375 22.265625 264.21875 C18.14475669 249.13003217 11.57804117 239.01960796 0.1171875 228.14453125 C-1.75745594 226.24567655 -3.49965152 224.30071913 -5.24609375 222.28515625 C-8.37174167 218.68359518 -11.60614355 215.20893562 -14.89916992 211.76049805 C-39.06215185 186.44565759 -39.06215185 186.44565759 -39.15390015 167.42976379 C-39.1582824 166.7832625 -39.16266465 166.13676121 -39.1671797 165.47066897 C-39.1804952 163.31222999 -39.18673012 161.15383177 -39.19287109 158.99536133 C-39.20077775 157.44436461 -39.20904705 155.89336971 -39.21765137 154.34237671 C-39.24380515 149.2556126 -39.25917187 144.16884053 -39.2734375 139.08203125 C-39.27879982 137.32737409 -39.28417733 135.57271698 -39.28956985 133.81805992 C-39.31118838 126.51684309 -39.3299235 119.21562841 -39.34119225 111.9143877 C-39.35742316 101.46877294 -39.39059181 91.02353057 -39.44759309 80.57805616 C-39.48635331 73.22329517 -39.50583209 65.86863355 -39.51111281 58.51377314 C-39.51475779 54.12588782 -39.52668797 49.73840029 -39.55921555 45.35062599 C-39.58940385 41.21938068 -39.59557009 37.08877166 -39.58383179 32.95743942 C-39.58361195 31.44742008 -39.59184208 29.93737027 -39.60948563 28.42745399 C-39.71604261 18.77748504 -39.0170978 10.56639798 -32.28987694 3.10264301 C-23.12098219 -5.71014557 -10.77586306 -6.32302708 0 0 Z " fill="#BEDB6D" transform="translate(50,190)"/>
<path d="M0 0 C5.6475501 4.88465403 9.60429908 10.60038736 10.2823925 18.13978958 C10.39825845 22.15735596 10.41743112 26.16532007 10.40405273 30.18408203 C10.40976058 31.73050936 10.41672645 33.27693248 10.42485046 34.823349 C10.44275861 39.01175132 10.44161703 43.19994383 10.43590808 47.3883729 C10.43281051 50.89431215 10.43891552 54.40021143 10.44494683 57.90614498 C10.45898495 66.1861619 10.45743883 74.46607564 10.44604492 82.74609375 C10.43458523 91.26154641 10.4486047 99.77668333 10.4754414 108.29209435 C10.49767274 115.623186 10.50421849 122.95417911 10.49836498 130.28530204 C10.49500939 134.65471634 10.49731577 139.02392869 10.51461601 143.39331436 C10.53020029 147.50897781 10.52600395 151.62417837 10.50731087 155.7398243 C10.50365539 157.24049739 10.50664338 158.74120564 10.51719666 160.24184608 C10.64549356 180.01337366 4.19486786 191.91905343 -9 206 C-10.09014231 207.17029488 -11.17996681 208.34088585 -12.26953125 209.51171875 C-16.39163922 213.93586534 -20.5186265 218.35549375 -24.65625 222.76513672 C-37.52543002 236.48989642 -47.8916095 248.16446702 -52 267 C-63.70622963 264.31390174 -75.32704989 261.38518443 -86.92578125 258.26953125 C-88.57335866 257.82900863 -90.22099894 257.38872112 -91.86869812 256.94865417 C-96.14682314 255.80543994 -100.42415434 254.65928483 -104.70129395 253.51239014 C-109.92602932 252.11198715 -115.15169341 250.71505433 -120.37723827 249.31767559 C-124.43437668 248.23268842 -128.49137241 247.14717773 -132.54792786 246.06001282 C-133.28951645 245.86137634 -134.03110504 245.66273987 -134.79516602 245.45808411 C-136.79219723 244.92314261 -138.78914525 244.38789057 -140.78608704 243.85261536 C-143.18679963 243.21573301 -145.58784845 242.59155196 -148 242 C-154.50554442 204.55439612 -154.50554442 204.55439612 -142.99365234 187.58691406 C-139.32102873 182.82140833 -135.02119315 178.65614159 -130.73291016 174.45166016 C-129.12789749 172.87784118 -127.53383195 171.29357542 -125.94140625 169.70703125 C-121.76825521 165.57069764 -117.59962439 161.49541764 -113.14599609 157.66137695 C-108.82811444 153.91118238 -104.83501416 149.89313774 -100.84375 145.80078125 C-99.31164504 144.24630398 -97.7790791 142.69228093 -96.24609375 141.13867188 C-93.86519194 138.72063764 -91.48752799 136.2997174 -89.11767578 133.87084961 C-86.80640111 131.50490835 -84.48246563 129.15202193 -82.15625 126.80078125 C-81.45705444 126.0778035 -80.75785889 125.35482574 -80.03747559 124.60993958 C-73.49712512 118.0353518 -67.10821382 114.4698626 -57.75 113.75 C-49.53838118 114.29744125 -42.39037447 117.32709432 -36.75 123.4375 C-33.18851176 128.65253636 -31.87754611 133.73138042 -33 140 C-35.91436541 147.02870785 -39.9843333 151.4519199 -45.44921875 156.6640625 C-47.1179073 158.29680473 -48.786525 159.92961937 -50.45507812 161.5625 C-53.0785677 164.10493708 -55.70618053 166.64301073 -58.33618164 169.17871094 C-60.88430968 171.64251107 -63.41716756 174.12125967 -65.94921875 176.6015625 C-67.13664925 177.73146103 -67.13664925 177.73146103 -68.34806824 178.88418579 C-72.61826832 183.04121431 -72.61826832 183.04121431 -75.06567383 188.37646484 C-75.15898548 191.02623896 -75.15898548 191.02623896 -74 193.375 C-71.99804367 195.25215321 -71.99804367 195.25215321 -68.8125 195.6875 C-64.85083424 194.97310126 -64.04990885 194.48523022 -61.22119141 191.8972168 C-60.52221741 191.26133636 -59.82324341 190.62545593 -59.10308838 189.9703064 C-58.06205963 188.99500473 -58.06205963 188.99500473 -57 188 C-56.07812897 187.13672592 -56.07812897 187.13672592 -55.13763428 186.25601196 C-51.20182964 182.51819444 -47.34169246 178.7020555 -43.48144531 174.88647461 C-42.07979131 173.50642701 -40.67190817 172.13267701 -39.2578125 170.76538086 C-28.92543891 160.77029781 -19.09499275 151.13592797 -18.75 135.8125 C-18.8982742 126.87156574 -22.04747493 118.69339729 -28 112 C-31.44114003 109.24245344 -35.0590767 106.97046165 -39 105 C-39.06965512 93.68170118 -39.12288997 82.36345376 -39.15543652 71.04498386 C-39.17106094 65.7887824 -39.19224023 60.53272811 -39.22631836 55.27661133 C-39.25902688 50.19969686 -39.27687724 45.12292353 -39.28463173 40.04591179 C-39.29015464 38.11352252 -39.3009394 36.18114055 -39.31719017 34.24881172 C-39.33911733 31.53232538 -39.34196057 28.81641478 -39.34057617 26.09985352 C-39.351362 25.30934601 -39.36214783 24.5188385 -39.3732605 23.70437622 C-39.32653816 15.17541104 -36.99057252 7.96242491 -31.08203125 1.73046875 C-21.84642358 -5.94565545 -10.08660224 -5.95192893 0 0 Z " fill="#73C877" transform="translate(491,190)"/>
<path d="M0 0 C11.46286922 9.85212498 17.97699751 21.78741539 20.05078125 36.7734375 C21.19697481 52.31317713 17.06167827 66.90320279 7.05078125 78.9609375 C0.40149246 85.94889974 -8.56225313 92.28063335 -17.94921875 94.7734375 C-19.26921875 94.7734375 -20.58921875 94.7734375 -21.94921875 94.7734375 C-21.94921875 81.2434375 -21.94921875 67.7134375 -21.94921875 53.7734375 C-17.65921875 53.4434375 -13.36921875 53.1134375 -8.94921875 52.7734375 C-8.28921875 52.4434375 -7.62921875 52.1134375 -6.94921875 51.7734375 C-7.53506125 47.72055989 -9.63209959 45.3108767 -12.13671875 42.1484375 C-13.0396093 41.00694271 -13.94191788 39.86498743 -14.84375 38.72265625 C-15.58359131 37.78945557 -15.58359131 37.78945557 -16.33837891 36.83740234 C-18.12019741 34.554363 -19.85436378 32.23932421 -21.5859375 29.91796875 C-22.20509033 29.09699707 -22.82424316 28.27602539 -23.4621582 27.43017578 C-24.69247896 25.798674 -25.9138747 24.16039904 -27.12573242 22.51513672 C-27.97808472 21.39582764 -27.97808472 21.39582764 -28.84765625 20.25390625 C-29.60054932 19.24686646 -29.60054932 19.24686646 -30.36865234 18.21948242 C-32.08404812 16.32342941 -32.08404812 16.32342941 -35.94921875 16.7734375 C-37.95159375 18.87363845 -39.65254149 20.90366795 -41.38671875 23.2109375 C-41.89879883 23.87383789 -42.41087891 24.53673828 -42.93847656 25.21972656 C-44.03758878 26.64558393 -45.13131439 28.07560629 -46.22021484 29.50927734 C-48.00021096 31.84021268 -49.8091167 34.14615895 -51.625 36.44921875 C-52.81710092 37.97341527 -54.00852369 39.49814247 -55.19921875 41.0234375 C-55.77212646 41.74974365 -56.34503418 42.4760498 -56.93530273 43.22436523 C-57.46067627 43.90571533 -57.9860498 44.58706543 -58.52734375 45.2890625 C-58.9955957 45.89008789 -59.46384766 46.49111328 -59.94628906 47.11035156 C-61.20742729 48.87792404 -61.20742729 48.87792404 -60.94921875 51.7734375 C-56.4375056 54.02929408 -50.97860949 53.38656129 -45.94921875 53.7734375 C-45.94921875 67.3034375 -45.94921875 80.8334375 -45.94921875 94.7734375 C-59.92233395 92.77727819 -70.2841545 85.21274057 -78.76171875 74.0859375 C-86.72094615 62.06242377 -89.49922908 47.68918819 -87.48828125 33.52734375 C-84.35295728 18.16425631 -76.66155285 5.71190723 -63.57421875 -3.1640625 C-43.58347384 -14.98837545 -18.63269503 -14.06706777 0 0 Z " fill="#69C679" transform="translate(289.94921875,175.2265625)"/>
<path d="M0 0 C5.07061627 7.32544563 8.19947264 20.08963179 7 29 C4.56719962 32.44871961 1.30905927 32.98241466 -2.63818359 34.01782227 C-3.31070663 34.19726883 -3.98322968 34.37671539 -4.6761322 34.56159973 C-6.91445345 35.15626528 -9.1563167 35.7362462 -11.3984375 36.31640625 C-12.98727521 36.73563908 -14.57586335 37.15581876 -16.16421509 37.57688904 C-20.37929931 38.69173271 -24.59747578 39.79439714 -28.81646729 40.89434814 C-33.77793708 42.1900186 -38.7358185 43.49932524 -43.69417191 44.80685997 C-47.80548491 45.89072449 -51.91741782 46.97208153 -56.03094482 48.04751587 C-64.52007456 50.26995674 -72.99408748 52.5371504 -81.45019531 54.88232422 C-83.15057643 55.35149548 -84.85098496 55.82056742 -86.55142212 56.28953552 C-89.75627848 57.17373436 -92.95714046 58.07081916 -96.15634155 58.97523499 C-97.61010953 59.37714565 -99.06401077 59.77857468 -100.51806641 60.17944336 C-101.77406647 60.53195663 -103.03006653 60.88446991 -104.3241272 61.24766541 C-114.07934275 63.24424867 -114.07934275 63.24424867 -117.91333008 60.76049805 C-119.13025724 58.78897215 -119.79149537 57.0725956 -120.38671875 54.83203125 C-120.60263672 54.02056641 -120.81855469 53.20910156 -121.04101562 52.37304688 C-121.25435547 51.52806641 -121.46769531 50.68308594 -121.6875 49.8125 C-121.91244141 48.98685547 -122.13738281 48.16121094 -122.36914062 47.31054688 C-123.72213888 42.09183932 -124.68820272 37.38209822 -124 32 C-120.18604017 29.04709998 -115.87210204 27.94373571 -111.2734375 26.7668457 C-110.5097435 26.56467941 -109.7460495 26.36251312 -108.95921326 26.15422058 C-106.43301288 25.48738684 -103.90406742 24.83164922 -101.375 24.17578125 C-99.59054567 23.70672319 -97.80628794 23.23691662 -96.0222168 22.7664032 C-91.30704454 21.52477039 -86.58953853 20.29225291 -81.87139893 19.06195068 C-74.42576166 17.118599 -66.98402839 15.16032934 -59.54168701 13.20440292 C-56.8221339 12.49080912 -54.10181184 11.78021057 -51.38134766 11.07009888 C-43.26179265 8.94618941 -35.15729668 6.78888377 -27.08984375 4.47412109 C-26.40964676 4.28028808 -25.72944977 4.08645506 -25.02864075 3.88674831 C-21.92612543 3.0020019 -18.82869022 2.10455644 -15.73754883 1.18074036 C-5.65526184 -1.71728687 -5.65526184 -1.71728687 0 0 Z " fill="#E2E468" transform="translate(184,445)"/>
<path d="M0 0 C1.61540796 0.4257623 3.22932537 0.857208 4.84194946 1.293396 C5.73104004 1.52934982 6.62013062 1.76530365 7.53616333 2.00840759 C10.45928622 2.78553619 13.38034452 3.57014126 16.30142212 4.35491943 C18.3542545 4.90245189 20.40720459 5.44954319 22.46026611 5.99621582 C27.86326006 7.4362747 33.26450029 8.88280953 38.66543579 10.33056641 C43.0289153 11.4990731 47.3936083 12.66300541 51.7583828 13.82666397 C57.02314541 15.23035792 62.28736334 16.63608857 67.55142212 18.04241943 C68.53219097 18.30440376 69.51295982 18.56638809 70.52344894 18.83631134 C76.01645288 20.30466312 81.50739658 21.78035443 86.99599457 23.26509094 C89.62629914 23.97394629 92.2588672 24.67395566 94.89157104 25.37384033 C96.54212856 25.81863815 98.19258529 26.26381016 99.84292603 26.70941162 C100.60006582 26.90837666 101.35720562 27.10734169 102.13728905 27.31233597 C107.36285967 28.73666948 107.36285967 28.73666948 109.59048462 30.96429443 C110.07463465 37.27227814 108.93048075 42.71132868 107.27798462 48.77679443 C107.06464478 49.6217749 106.85130493 50.46675537 106.63150024 51.33734131 C106.41558228 52.14880615 106.19966431 52.960271 105.97720337 53.79632568 C105.78344116 54.52569336 105.58967896 55.25506104 105.39004517 56.00653076 C104.38858437 58.4586572 103.83934572 59.50742729 101.59048462 60.96429443 C95.94194466 61.26956625 91.08297105 60.59593787 85.63101196 59.07171631 C84.87823975 58.8699881 84.12546753 58.66825989 83.34988403 58.4604187 C80.87273137 57.79408093 78.39969292 57.11363574 75.92642212 56.43304443 C74.17150588 55.95807185 72.41634313 55.48400921 70.66094971 55.01080322 C66.03078226 53.76010641 61.40394251 52.49751283 56.77774048 51.23223877 C52.18200576 49.97727883 47.58346647 48.73269644 42.98501587 47.48773193 C37.60394441 46.03069277 32.22337887 44.57193697 26.84555054 43.10296631 C18.69414691 40.8778976 10.53890937 38.6766345 2.35708618 36.56585693 C0.94288453 36.19865232 -0.47129073 35.83134601 -1.88543701 35.46392822 C-4.4664256 34.79365083 -7.04961649 34.13683201 -9.63598633 33.48712158 C-10.76056244 33.19535034 -11.88513855 32.9035791 -13.04379272 32.60296631 C-14.0152121 32.35671509 -14.98663147 32.11046387 -15.98748779 31.85675049 C-18.56443735 30.9072096 -19.79623719 30.17382297 -21.40951538 27.96429443 C-21.9664054 21.83850427 -20.83290569 16.58583938 -19.15951538 10.71429443 C-18.95455444 9.92538818 -18.74959351 9.13648193 -18.53842163 8.32366943 C-15.44044484 -2.79149576 -10.23910308 -2.5383184 0 0 Z " fill="#ACD770" transform="translate(342.4095153808594,446.03570556640625)"/>
<path d="M0 0 C36.96 0 73.92 0 112 0 C112 6.70714868 111.77044414 9.77179694 108 15 C102.43498061 20.12234739 97.52721757 21.15071025 90.07543945 21.17700195 C89.26855179 21.18357315 88.46166412 21.19014435 87.63032532 21.19691467 C84.95797633 21.2166361 82.28568357 21.228309 79.61328125 21.23828125 C78.69928244 21.24235678 77.78528362 21.2464323 76.84358788 21.25063133 C72.00388185 21.27148926 67.16420414 21.28579099 62.32446289 21.29516602 C57.33555156 21.30621711 52.34708789 21.34060277 47.35833454 21.38033772 C43.51404515 21.40653786 39.66986176 21.41486097 35.82549095 21.41844749 C33.98716402 21.42330632 32.14884159 21.4349002 30.31060219 21.45348549 C27.7305566 21.47794487 25.15166026 21.47689955 22.5715332 21.4699707 C21.44355316 21.48918579 21.44355316 21.48918579 20.29278564 21.50878906 C14.07931447 21.44831508 8.64828468 19.61454857 4.16015625 15.18359375 C3.79792969 14.60738281 3.43570313 14.03117187 3.0625 13.4375 C2.68222656 12.85871094 2.30195313 12.27992188 1.91015625 11.68359375 C-0.38337349 7.4410559 0 5.24888516 0 0 Z " fill="#AAD670" transform="translate(200,384)"/>
<path d="M0 0 C24.42 0 48.84 0 74 0 C72.50286874 8.98278758 68.41926858 14.47465985 61.125 19.80859375 C54.18613464 23.69895025 47.01970933 23.33904259 39.31494141 23.31567383 C37.1378345 23.3125186 34.96209517 23.335992 32.78515625 23.36132812 C22.40924198 23.41007838 14.74216022 22.42272809 6.83203125 15.10546875 C3.16059621 10.88605833 0 5.67900122 0 0 Z " fill="#B7D96E" transform="translate(219,420)"/>
<path d="M0 0 C3.56794217 1.37852311 4.84172115 2.75970969 6.75 6.0625 C7.3730765 9.80095903 7.20827532 11.38770407 5.06958008 14.53686523 C2.58448112 17.24272237 0.35407723 18.71996544 -2.86328125 20.47265625 C-3.94673828 21.07013672 -5.03019531 21.66761719 -6.14648438 22.28320312 C-7.27376953 22.89099609 -8.40105469 23.49878906 -9.5625 24.125 C-11.78779403 25.34499078 -14.01305532 26.56504126 -16.23828125 27.78515625 C-17.28411377 28.35121582 -18.32994629 28.91727539 -19.4074707 29.50048828 C-21.74428216 30.7846006 -24.03036339 32.11887445 -26.3125 33.49609375 C-30.14802602 35.5413676 -32.13055928 35.30610475 -36.25 34.0625 C-38.6875 32.4375 -38.6875 32.4375 -40.25 30.0625 C-40.8125 26.625 -40.8125 26.625 -40.25 23.0625 C-35.85991853 17.48900527 -29.51213445 14.46125697 -23.4375 11 C-22.38240234 10.38833984 -21.32730469 9.77667969 -20.24023438 9.14648438 C-4.52069443 0.08693643 -4.52069443 0.08693643 0 0 Z " fill="#28B682" transform="translate(434.25,105.9375)"/>
<path d="M0 0 C1.01328369 0.59135742 2.02656738 1.18271484 3.07055664 1.79199219 C4.19268555 2.44296875 5.31481445 3.09394531 6.47094727 3.76464844 C7.04804443 4.1057666 7.6251416 4.44688477 8.21972656 4.79833984 C9.96715893 5.83085846 11.72201788 6.84962918 13.47875977 7.86621094 C29.30294686 17.10833513 29.30294686 17.10833513 31.04321289 20.58886719 C31.61139471 26.72523082 31.61139471 26.72523082 29.48071289 29.96386719 C26.28378183 32.09515456 23.84453504 32.99722929 20.04321289 32.58886719 C15.6884672 30.79517153 11.71248193 28.42765193 7.66821289 26.02636719 C6.58282227 25.40439453 5.49743164 24.78242188 4.37915039 24.14160156 C-12.91956646 14.14469817 -12.91956646 14.14469817 -15.95678711 9.58886719 C-16.4600479 5.73053443 -16.27348036 4.08028776 -14.14428711 0.77636719 C-9.69320975 -3.67471017 -5.30638251 -2.53248212 0 0 Z " fill="#6AC678" transform="translate(86.956787109375,108.4111328125)"/>
<path d="M0 0 C2.9375 1.5 2.9375 1.5 5 4 C6.3180877 12.13448408 2.35918515 17.66793417 -1.6875 24.5 C-2.31333984 25.58925781 -2.93917969 26.67851563 -3.58398438 27.80078125 C-5.36369477 30.88312783 -7.17731618 33.94293076 -9 37 C-9.47260254 37.82242188 -9.94520508 38.64484375 -10.43212891 39.4921875 C-10.85284668 40.20632812 -11.27356445 40.92046875 -11.70703125 41.65625 C-12.05870361 42.26275391 -12.41037598 42.86925781 -12.77270508 43.49414062 C-15.01871564 46.24993795 -17.50130027 46.92572557 -20.9375 47.4375 C-24 47 -24 47 -26.875 44.9375 C-29.5569185 41.23014207 -29.40096177 39.50695306 -29 35 C-27.68652344 31.9296875 -27.68652344 31.9296875 -25.859375 28.875 C-25.20066406 27.75609375 -24.54195313 26.6371875 -23.86328125 25.484375 C-23.15926548 24.3226673 -22.45483538 23.1612106 -21.75 22 C-21.05978734 20.83937937 -20.37097265 19.67792617 -19.68359375 18.515625 C-18.37146162 16.3041091 -17.05212419 14.0968477 -15.72460938 11.89453125 C-14.33151407 9.556403 -13.00233317 7.20304304 -11.703125 4.8125 C-8.62872439 -0.26449183 -5.63699826 -0.58313775 0 0 Z " fill="#1EB384" transform="translate(361,32)"/>
<path d="M0 0 C3.39280355 2.83142535 5.39901143 6.08425058 7.56640625 9.90234375 C8.21673828 11.03994141 8.86707031 12.17753906 9.53710938 13.34960938 C10.21244149 14.54545891 10.88756995 15.74142349 11.5625 16.9375 C12.24093237 18.1299012 12.91996356 19.3219619 13.59960938 20.51367188 C14.85150103 22.71038741 16.10059276 24.90870272 17.34594727 27.10913086 C18.41791603 28.98266328 19.52858837 30.83477864 20.68334961 32.65844727 C22.56408307 36.00317461 22.53886931 38.2279148 22 42 C19.875 44.9375 19.875 44.9375 17 47 C13.00842292 47.5702253 10.36260828 47.18706557 7 45 C5.23242188 42.49731445 5.23242188 42.49731445 3.46875 39.36328125 C2.82292969 38.22826172 2.17710937 37.09324219 1.51171875 35.92382812 C0.84087719 34.72020177 0.17030627 33.51642454 -0.5 32.3125 C-1.16958127 31.12769424 -1.84014493 29.9434431 -2.51171875 28.75976562 C-3.79087241 26.49890621 -5.06400669 24.23462773 -6.33032227 21.96655273 C-7.66398741 19.59700087 -9.03556775 17.26118679 -10.43359375 14.9296875 C-12.69066354 10.70823528 -12.69450593 8.70720687 -12 4 C-8.51708493 -0.22171524 -5.31642554 -0.77329826 0 0 Z " fill="#44BD7D" transform="translate(158,32)"/>
<path d="M0 0 C0.66 -0.0103125 1.32 -0.020625 2 -0.03125 C5.0827444 0.78760398 6.08729459 1.92362302 8 4.5 C8.60715421 7.71477348 8.56037341 10.89254486 8.53125 14.15625 C8.5350769 15.09553345 8.53890381 16.03481689 8.54284668 17.00256348 C8.54556576 18.98625766 8.53820484 20.9699877 8.52148438 22.95361328 C8.50007461 25.98942016 8.52128607 29.02286046 8.546875 32.05859375 C8.54423172 33.98698439 8.53910675 35.91537356 8.53125 37.84375 C8.53934692 38.75112915 8.54744385 39.6585083 8.55578613 40.59338379 C8.46231774 46.877267 8.46231774 46.877267 6.09179688 50.0703125 C3.8304917 51.61585441 2.71291615 52.04238931 0 52 C-0.99 52.01546875 -0.99 52.01546875 -2 52.03125 C-5.0827444 51.21239602 -6.08729459 50.07637698 -8 47.5 C-8.60715421 44.28522652 -8.56037341 41.10745514 -8.53125 37.84375 C-8.5350769 36.90446655 -8.53890381 35.96518311 -8.54284668 34.99743652 C-8.54556576 33.01374234 -8.53820484 31.0300123 -8.52148438 29.04638672 C-8.50007461 26.01057984 -8.52128607 22.97713954 -8.546875 19.94140625 C-8.54423172 18.01301561 -8.53910675 16.08462644 -8.53125 14.15625 C-8.53934692 13.24887085 -8.54744385 12.3414917 -8.55578613 11.40661621 C-8.46231774 5.122733 -8.46231774 5.122733 -6.09179688 1.9296875 C-3.8304917 0.38414559 -2.71291615 -0.04238931 0 0 Z " fill="#28B682" transform="translate(256,4.5)"/>
</svg>
