<svg width="120" height="37" viewBox="0 0 120 37" fill="none" xmlns="http://www.w3.org/2000/svg">
<path fill-rule="evenodd" clip-rule="evenodd" d="M1.62305 26.9318H5.90196V22.3174H13.9981V20.136H5.90196V17.3673H14.7113V14.6406H5.60824C3.98618 14.6406 1.68597 16.7623 1.68597 18.5629L1.62305 26.9318Z" fill="#949EB7"/>
<path fill-rule="evenodd" clip-rule="evenodd" d="M20.2087 14.7748C18.8003 14.7748 16.4354 17.0313 16.4354 18.2986V23.3713C16.4354 24.725 18.8055 26.9318 19.9518 26.9318H28.4161C29.3554 26.9318 31.8445 24.937 31.8445 23.3713V18.5262C31.8445 17.0089 29.6897 14.7748 28.2179 14.7748H20.2087ZM20.6712 17.4617H27.7554C27.7554 17.4617 27.8107 24.0901 27.7554 24.2963C27.7002 24.5025 20.6712 24.2963 20.6712 24.2963V17.4617Z" fill="#949EB7"/>
<path fill-rule="evenodd" clip-rule="evenodd" d="M33.0432 14.5987H37.9093L40.594 17.8288L43.5725 14.5987H48.6484L43.1949 20.8073L48.4806 26.9318H43.6564L40.594 23.5339L37.7835 26.9318H32.7495L38.161 20.8073L33.0432 14.5987Z" fill="#949EB7"/>
<path fill-rule="evenodd" clip-rule="evenodd" d="M62.5336 17.5351H53.6403V24.3309H62.5336V26.9318H53.6403C52.737 26.9318 49.5713 24.8897 49.5713 23.3241V18.2483C49.5713 17.1669 52.1162 14.7245 53.6403 14.7245H62.5756L62.5336 17.5351Z" fill="#949EB7"/>
<path fill-rule="evenodd" clip-rule="evenodd" d="M81.7045 26.9318H86.0253V17.4931H92.947V26.9318H97.1245V18.7515C97.1542 17.1251 95.0692 14.6318 93.0938 14.6615H81.7884L81.7045 26.9318Z" fill="#949EB7"/>
<path d="M116.121 10.8828C116.469 10.8828 116.807 10.9719 117.138 11.15C117.469 11.3281 117.726 11.583 117.911 11.9146C118.095 12.2462 118.188 12.5919 118.188 12.9518C118.188 13.3081 118.097 13.6507 117.915 13.9795C117.733 14.3084 117.478 14.5637 117.15 14.7455C116.823 14.9273 116.48 15.0181 116.121 15.0181C115.763 15.0181 115.42 14.9273 115.092 14.7455C114.764 14.5637 114.509 14.3084 114.326 13.9795C114.144 13.6507 114.052 13.3081 114.052 12.9518C114.052 12.5919 114.145 12.2462 114.331 11.9146C114.516 11.583 114.774 11.3281 115.105 11.15C115.435 10.9719 115.774 10.8828 116.121 10.8828ZM116.121 11.2254C115.831 11.2254 115.548 11.2998 115.273 11.4487C114.998 11.5976 114.783 11.8105 114.628 12.0872C114.473 12.364 114.395 12.6522 114.395 12.9518C114.395 13.2496 114.471 13.5351 114.624 13.8082C114.776 14.0814 114.99 14.2942 115.264 14.4468C115.538 14.5993 115.824 14.6756 116.121 14.6756C116.419 14.6756 116.705 14.5993 116.979 14.4468C117.253 14.2942 117.466 14.0814 117.618 13.8082C117.769 13.5351 117.845 13.2496 117.845 12.9518C117.845 12.6522 117.768 12.364 117.614 12.0872C117.459 11.8105 117.244 11.5976 116.968 11.4487C116.692 11.2998 116.41 11.2254 116.121 11.2254ZM115.214 14.0946V11.8694H115.979C116.24 11.8694 116.429 11.8899 116.546 11.931C116.663 11.9721 116.756 12.0439 116.826 12.1462C116.895 12.2485 116.93 12.3572 116.93 12.4723C116.93 12.6349 116.872 12.7765 116.756 12.897C116.64 13.0176 116.486 13.0852 116.294 13.0998C116.373 13.1327 116.436 13.172 116.483 13.2177C116.573 13.3054 116.682 13.4525 116.812 13.6589L117.083 14.0946H116.645L116.448 13.7438C116.292 13.468 116.167 13.2953 116.072 13.2259C116.006 13.1747 115.91 13.1492 115.784 13.1492H115.573V14.0946H115.214ZM115.573 12.8422H116.009C116.217 12.8422 116.359 12.8112 116.435 12.7491C116.511 12.687 116.549 12.6047 116.549 12.5024C116.549 12.4366 116.531 12.3777 116.494 12.3256C116.458 12.2736 116.407 12.2348 116.342 12.2092C116.277 12.1836 116.157 12.1708 115.982 12.1708H115.573V12.8422Z" fill="#949EB7"/>
<path fill-rule="evenodd" clip-rule="evenodd" d="M68.2283 14.7748C66.8198 14.7748 64.4549 17.0313 64.4549 18.2986V23.3713C64.4549 24.725 66.825 26.9318 67.9713 26.9318H76.4357C77.3749 26.9318 79.864 24.937 79.864 23.3713V18.5262C79.864 17.0089 77.7092 14.7748 76.2375 14.7748H68.2283ZM68.6907 17.4617H75.775C75.775 17.4617 75.8302 24.0901 75.775 24.2963C75.7197 24.5025 68.6907 24.2963 68.6907 24.2963V17.4617Z" fill="#949EB7"/>
<path fill-rule="evenodd" clip-rule="evenodd" d="M98.7987 26.9318H103.12V17.4931H110.041V26.9318H114.219V18.7515C114.248 17.1251 112.163 14.6318 110.188 14.6615H98.8826L98.7987 26.9318Z" fill="#949EB7"/>
</svg>
