<svg width="119" height="37" viewBox="0 0 119 37" fill="none" xmlns="http://www.w3.org/2000/svg">
<path d="M38.9787 26.5716H34.6493L33.3248 23.377H26.1093L24.9026 26.5716H20.6445L27.1499 10.4371H31.8105L38.9787 26.5716ZM29.5395 14.2925L27.1738 20.5615H32.1419L29.5395 14.2925ZM54.7055 10.4371H58.2067V26.5716H54.1845V16.4935L49.8317 21.5557H49.2168L44.8643 16.4935V26.5714H40.8421V10.4371H44.3433L49.524 16.4223L54.7055 10.4371ZM68.3979 10.4371C74.2882 10.4371 77.3159 14.1035 77.3159 18.5274C77.3159 23.1641 74.3828 26.5716 67.9481 26.5716H61.2767V10.4371H68.3979ZM67.924 23.6145C71.9694 23.6145 73.1761 20.8696 73.1761 18.5035C73.1761 15.7353 71.6855 13.3939 67.8767 13.3939H65.2985V23.6145H67.924ZM85.3177 14.2628L80.2463 9.19043H98.7088V27.6536L93.6373 22.5819V14.2628H85.3177ZM85.3118 15.2791L80.0905 20.5003V27.8089H87.3981L92.6192 22.5878H85.3118V15.2791Z" fill="#949EB7"/>
</svg>
