<svg width="120" height="37" viewBox="0 0 120 37" fill="none" xmlns="http://www.w3.org/2000/svg">
<path d="M26.6475 10.8828C26.7547 10.8892 26.8619 10.8944 26.9692 10.9018C27.3959 10.9315 27.8259 10.9452 28.2505 10.9949C28.7728 11.0562 29.2941 11.1324 29.8121 11.2286C30.5382 11.3629 31.2463 11.5669 31.9406 11.8186C32.74 12.1083 33.5065 12.4647 34.2305 12.9109C34.6848 13.1911 35.119 13.4967 35.5193 13.8467C36.0055 14.2697 36.4407 14.7391 36.8049 15.2731C37.1573 15.7902 37.427 16.3443 37.5979 16.9459C37.7486 17.4736 37.7996 18.0118 37.7677 18.5574C37.7338 19.1273 37.5968 19.6751 37.3717 20.2017C37.0299 21.0032 36.5235 21.6894 35.9046 22.2985C35.2857 22.9075 34.5851 23.4056 33.8281 23.8296C33.1901 24.187 32.5256 24.4873 31.8345 24.7231C31.3833 24.8775 30.9225 25.0054 30.4608 25.126C30.0849 25.2243 29.7038 25.3047 29.3217 25.3702C28.9363 25.4358 28.5456 25.4781 28.156 25.5225C27.5031 25.5976 26.8471 25.624 26.1899 25.6103C25.7653 25.6007 25.3396 25.5775 24.916 25.5405C24.502 25.5056 24.0869 25.4601 23.6771 25.3924C23.2323 25.3184 22.7918 25.2232 22.3523 25.1207C21.744 24.979 21.1474 24.7908 20.5699 24.5529C20.1505 24.3794 19.7354 24.1944 19.331 23.9914C18.5921 23.6192 17.9074 23.1613 17.2863 22.6146C16.7959 22.1832 16.3574 21.7042 15.9986 21.1575C15.5825 20.5252 15.2852 19.8443 15.1525 19.0977C15.1175 18.9021 15.1058 18.7012 15.0814 18.5035C15.0772 18.4686 15.0623 18.4358 15.0527 18.402C15.0527 18.2888 15.0527 18.1746 15.0527 18.0615C15.0623 18.0425 15.0793 18.0245 15.0814 18.0044C15.0994 17.8479 15.1069 17.6903 15.1313 17.5349C15.229 16.8952 15.4476 16.2967 15.7651 15.7331C16.1101 15.1198 16.5538 14.5837 17.0645 14.0984C17.7927 13.4068 18.6229 12.8633 19.5178 12.415C20.4594 11.9423 21.4499 11.5976 22.4744 11.3523C23.0731 11.2085 23.6771 11.0922 24.2908 11.0277C24.5615 10.9991 24.8311 10.9621 25.1029 10.9431C25.432 10.9209 25.7611 10.9135 26.0912 10.8987C26.1443 10.8955 26.1974 10.8881 26.2515 10.8828H26.6486H26.6475ZM34.9821 14.5826C34.9715 14.608 34.9672 14.6154 34.9651 14.6239C34.9619 14.6419 34.9587 14.6588 34.9566 14.6768C34.9269 14.9792 34.8271 15.2573 34.671 15.5163C34.395 15.9763 34.0097 16.3284 33.5734 16.6308C32.9884 17.0358 32.3483 17.3287 31.6805 17.5677C30.9034 17.8458 30.1041 18.034 29.2898 18.1641C29.2251 18.1746 29.2017 18.1937 29.2006 18.2645C29.1943 18.6885 29.1911 19.1136 29.1656 19.5366C29.1253 20.2196 29.0318 20.8953 28.8822 21.5646C28.725 22.2689 28.5127 22.953 28.1815 23.598C27.9809 23.9882 27.7409 24.3498 27.4182 24.6501C27.3439 24.7199 27.2611 24.7802 27.1645 24.8595C27.2165 24.8595 27.2431 24.8616 27.2696 24.8595C27.4968 24.8426 27.7261 24.8394 27.9501 24.8045C28.4872 24.721 29.0265 24.6364 29.5584 24.5254C30.2304 24.3837 30.8801 24.1627 31.5117 23.8941C32.2156 23.5949 32.8823 23.2279 33.5022 22.7775C33.9884 22.4243 34.4332 22.0257 34.8271 21.5742C35.2326 21.11 35.5681 20.5992 35.8165 20.0346C36.0341 19.5397 36.1743 19.0237 36.2284 18.4844C36.2783 17.9906 36.2571 17.5 36.1605 17.0147C36.0076 16.248 35.6849 15.5544 35.2337 14.9178C35.1551 14.8068 35.0702 14.7011 34.9821 14.5826ZM17.8766 14.6059C17.85 14.6313 17.8246 14.6493 17.8055 14.6736C17.5592 14.9908 17.3415 15.326 17.1621 15.6845C16.7099 16.5854 16.5252 17.5338 16.6345 18.5384C16.6887 19.0279 16.8139 19.4995 17.005 19.9511C17.3766 20.8287 17.9477 21.5657 18.6505 22.2054C19.1728 22.6802 19.7503 23.0767 20.3671 23.4183C21.3193 23.9459 22.3342 24.3075 23.3916 24.5539C24.1103 24.721 24.8396 24.8172 25.5763 24.8616C25.6061 24.8637 25.6358 24.8616 25.6878 24.8616C25.6592 24.8309 25.6507 24.8193 25.639 24.8109C25.329 24.5909 25.0954 24.3022 24.8948 23.985C24.554 23.4479 24.3258 22.8621 24.1485 22.2562C23.9871 21.7053 23.8629 21.1459 23.7992 20.576C23.7472 20.1139 23.7047 19.6497 23.674 19.1855C23.6538 18.8789 23.6591 18.5701 23.657 18.2624C23.657 18.2053 23.6421 18.1778 23.5816 18.1662C23.1209 18.0731 22.658 17.9896 22.2026 17.8786C21.4 17.6829 20.6293 17.3996 19.9 17.0073C19.4393 16.7588 19.0104 16.468 18.6409 16.0958C18.3511 15.8039 18.1133 15.4772 17.988 15.0817C17.9403 14.9326 17.9159 14.7762 17.8766 14.6049V14.6059ZM26.4182 11.7425C25.742 11.752 25.0678 11.7879 24.398 11.8704C23.967 11.9233 23.537 11.9889 23.1113 12.0724C22.6039 12.1718 22.1039 12.3092 21.6198 12.4943C21.1399 12.6783 20.6771 12.895 20.2864 13.2366C20.0783 13.4185 19.9053 13.6268 19.831 13.8996C19.7269 14.2813 19.8671 14.5975 20.1187 14.8755C20.4085 15.1959 20.7758 15.4095 21.1633 15.5903C21.5709 15.7796 21.9924 15.934 22.4308 16.0366C22.8671 16.1381 23.3067 16.2258 23.7451 16.32C23.7907 16.3295 23.813 16.3168 23.8236 16.265C23.9001 15.8822 23.9712 15.4973 24.0625 15.1177C24.2175 14.4748 24.4415 13.8552 24.7621 13.2746C24.9659 12.9067 25.2112 12.5694 25.5392 12.3008C26.0986 11.844 26.743 11.8472 27.3078 12.2955C27.6645 12.5789 27.9161 12.9447 28.1295 13.337C28.4809 13.9842 28.7038 14.6799 28.8652 15.3947C28.9289 15.6739 28.9745 15.9573 29.0287 16.2385C29.0372 16.2851 29.0382 16.3369 29.1125 16.3221C29.4034 16.266 29.6975 16.2237 29.9852 16.1561C30.5467 16.0239 31.1009 15.8632 31.6264 15.6221C32.0701 15.419 32.4852 15.1769 32.8079 14.7994C33.102 14.4558 33.1392 13.9894 32.8961 13.612C32.6774 13.2715 32.3589 13.0473 32.0139 12.8559C31.4289 12.5302 30.7983 12.3293 30.1508 12.1697C29.4289 11.991 28.6953 11.881 27.9554 11.8218C27.4448 11.7805 26.9309 11.77 26.4182 11.7456V11.7425ZM24.7334 18.3184C24.7334 18.3734 24.7313 18.4115 24.7334 18.4496C24.7621 18.8186 24.7801 19.1887 24.8226 19.5556C24.9044 20.2482 25.0572 20.926 25.3481 21.5646C25.4882 21.8734 25.6602 22.161 25.9256 22.3841C26.2197 22.6305 26.5721 22.6442 26.8821 22.4201C27.035 22.3101 27.1549 22.1695 27.2579 22.0151C27.5753 21.5382 27.7473 21.0032 27.8779 20.4512C28.0254 19.8273 28.0934 19.194 28.1231 18.5553C28.1263 18.4792 28.1231 18.403 28.1231 18.3184C26.9893 18.4125 25.8662 18.4147 24.7324 18.3184H24.7334ZM26.4798 16.5325C26.9182 16.5113 27.4235 16.486 27.9299 16.4616C27.9798 16.4595 28.0085 16.45 27.9989 16.3887C27.9012 15.8166 27.7717 15.2541 27.5318 14.7222C27.3991 14.4272 27.2431 14.1449 27.0042 13.9197C26.7961 13.724 26.5573 13.6056 26.2621 13.6817C26.0127 13.7462 25.8333 13.9133 25.6814 14.111C25.4107 14.4642 25.2366 14.8671 25.1177 15.2911C25.0201 15.64 24.9489 15.9974 24.8672 16.3506C24.8449 16.449 24.8566 16.4574 24.9553 16.4638C25.0148 16.4669 25.0742 16.4775 25.1337 16.4796C25.5594 16.4965 25.9851 16.5124 26.4808 16.5314L26.4798 16.5325Z" fill="#949EB7"/>
<path d="M56.4224 23.8719C53.2949 23.8835 50.8639 21.3722 50.7705 18.4527C50.6654 15.179 53.3098 12.6116 56.4351 12.6265C59.5414 12.6413 62.1094 15.1653 62.0584 18.3533C62.0106 21.3859 59.5127 23.8782 56.4213 23.8729L56.4224 23.8719ZM53.2503 18.255C53.2588 18.3924 53.262 18.5299 53.2758 18.6663C53.3533 19.4572 53.6442 20.1646 54.1686 20.7631C54.674 21.3394 55.3024 21.7084 56.0795 21.7983C56.6305 21.8618 57.1581 21.7803 57.6528 21.5361C58.4755 21.1311 59.0127 20.4671 59.3322 19.6254C59.5615 19.0205 59.6263 18.3914 59.5414 17.7495C59.415 16.7947 59.0148 15.9837 58.2632 15.3641C57.5233 14.755 56.6761 14.5467 55.7398 14.7656C54.9903 14.9411 54.4096 15.3799 53.9659 15.9953C53.4807 16.6678 53.2514 17.426 53.2503 18.2539V18.255Z" fill="#949EB7"/>
<path d="M78.6754 23.8719C75.5585 23.8899 73.016 21.3405 73.0224 18.2423C73.0288 15.1632 75.5363 12.6222 78.6733 12.6275C81.805 12.6328 84.3178 15.1526 84.3157 18.2603C84.3125 21.3838 81.753 23.8814 78.6754 23.8719ZM81.8283 18.3459C81.8305 17.7231 81.7317 17.2092 81.5205 16.7154C81.2476 16.0757 80.8379 15.5449 80.2529 15.1642C79.5151 14.6831 78.7104 14.5531 77.8622 14.8005C77.0607 15.0342 76.4715 15.5523 76.049 16.2565C75.6233 16.966 75.4577 17.7401 75.5214 18.5648C75.5628 19.0925 75.6955 19.5926 75.945 20.06C76.3293 20.7811 76.8781 21.332 77.6541 21.6313C78.2847 21.8745 78.927 21.8851 79.565 21.6736C80.323 21.423 80.8835 20.9175 81.289 20.245C81.6553 19.636 81.8326 18.9698 81.8273 18.3449L81.8283 18.3459Z" fill="#949EB7"/>
<path d="M104.988 23.6213H104.895C104.041 23.6213 103.188 23.6213 102.334 23.6234C102.257 23.6234 102.221 23.6022 102.192 23.5261C101.911 22.7817 101.623 22.0394 101.339 21.2961C101.32 21.2464 101.296 21.2347 101.248 21.2347C99.833 21.2347 98.4168 21.2358 97.0017 21.2347C96.9444 21.2347 96.9263 21.259 96.9083 21.3066C96.6312 22.0341 96.352 22.7606 96.0749 23.487C96.0229 23.6223 96.024 23.6234 95.8828 23.6234C95.0473 23.6234 94.2118 23.6234 93.3764 23.6234H93.2575C93.2861 23.5494 93.3095 23.4838 93.3371 23.4193C93.5526 22.9012 93.7691 22.3841 93.9836 21.8671C94.2373 21.2548 94.49 20.6426 94.7426 20.0304C95.1269 19.102 95.5123 18.1736 95.8966 17.2452C96.196 16.5208 96.4932 15.7955 96.7936 15.0701C97.0696 14.4039 97.3478 13.7388 97.6217 13.0716C97.645 13.0156 97.6843 13.0187 97.73 13.0187C98.1121 13.0187 98.4932 13.0187 98.8754 13.0187C99.4221 13.0187 99.9689 13.0198 100.517 13.0166C100.585 13.0166 100.618 13.0388 100.643 13.1002C100.919 13.7727 101.197 14.4441 101.475 15.1166C101.766 15.8219 102.057 16.5261 102.349 17.2314C102.612 17.868 102.878 18.5035 103.141 19.14C103.526 20.0716 103.911 21.0032 104.296 21.9347C104.525 22.4877 104.757 23.0408 104.987 23.5938C104.989 23.5991 104.987 23.6054 104.989 23.6234L104.988 23.6213ZM97.6227 19.4456H100.63C100.132 18.1461 99.6387 16.8571 99.1451 15.5692L99.1068 15.5734C98.6143 16.8592 98.1217 18.145 97.6227 19.4456Z" fill="#949EB7"/>
<path d="M62.196 13.0166C62.2756 13.0166 62.3414 13.0166 62.4072 13.0166C63.2183 13.0166 64.0304 13.0166 64.8415 13.0155C64.92 13.0155 64.9678 13.0304 65.0103 13.1086C65.2735 13.577 65.5442 14.0402 65.8139 14.5044C66.0846 14.9717 66.3564 15.438 66.6271 15.9044C66.9116 16.395 67.195 16.8856 67.4785 17.3763C67.4944 17.4038 67.5146 17.4291 67.539 17.4661C67.5655 17.4302 67.5889 17.4038 67.6069 17.3741C68.0528 16.6012 68.4987 15.8282 68.9445 15.0563C69.3278 14.3933 69.7142 13.7314 70.0964 13.0663C70.1261 13.0145 70.1633 13.0155 70.2078 13.0155C70.5359 13.0155 70.8628 13.0166 71.1909 13.0166C71.7142 13.0166 72.2366 13.0166 72.7599 13.0166C72.796 13.0166 72.8321 13.0166 72.8884 13.0166C72.8406 13.097 72.8013 13.1646 72.7589 13.2313C72.3225 13.9228 71.8873 14.6143 71.4499 15.3048C71.0592 15.9223 70.6665 16.5388 70.2758 17.1574C69.7715 17.9568 69.2683 18.7572 68.7662 19.5577C68.7492 19.5852 68.745 19.6253 68.745 19.6592C68.745 20.9598 68.745 22.2604 68.745 23.562C68.745 23.5768 68.7439 23.5916 68.7418 23.617C68.7089 23.6181 68.677 23.6213 68.6462 23.6213C67.9095 23.6213 67.1738 23.6213 66.4381 23.6234C66.3617 23.6234 66.3362 23.6086 66.3362 23.5261C66.3394 22.2403 66.3383 20.9545 66.3362 19.6687C66.3362 19.6243 66.3224 19.5735 66.299 19.5365C65.6716 18.5362 65.0421 17.537 64.4115 16.5377C63.8606 15.6643 63.3075 14.793 62.7554 13.9207C62.5813 13.6458 62.4083 13.3708 62.2363 13.0959C62.2236 13.0758 62.214 13.0547 62.1949 13.0177L62.196 13.0166Z" fill="#949EB7"/>
<path d="M41.1331 13.022H50.1355V14.9528C50.0919 14.9559 50.0452 14.9612 49.9985 14.9612C48.9826 14.9612 47.9666 14.9612 46.9517 14.9612C46.8654 14.9612 46.8222 15.0035 46.8222 15.0881C46.8222 17.8966 46.8222 20.7039 46.8222 23.5124V23.6139H44.4506V14.9623C44.353 14.9623 44.267 14.9623 44.1799 14.9623C43.2032 14.9623 42.2266 14.9623 41.2499 14.9623C41.1278 14.9623 41.1268 14.9623 41.1268 14.8396C41.1268 14.2623 41.1268 13.686 41.1268 13.1087C41.1268 13.0822 41.1299 13.0568 41.1321 13.023L41.1331 13.022Z" fill="#949EB7"/>
<path d="M90.7295 14.9622V23.6149C90.6987 23.617 90.6733 23.6202 90.6478 23.6202C89.9174 23.6202 89.187 23.6202 88.4577 23.6223C88.3834 23.6223 88.3622 23.6033 88.3622 23.5261C88.3643 21.8216 88.3622 20.117 88.3622 18.4136C88.3622 17.3044 88.3622 16.1952 88.3622 15.0859C88.3622 15.0042 88.3222 14.9633 88.2422 14.9633C87.2146 14.9633 86.1869 14.9633 85.1593 14.9633C85.0786 14.9633 85.0383 14.9228 85.0383 14.8417C85.0383 14.2739 85.0383 13.705 85.0383 13.1372V13.024H94.0491C94.0513 13.0568 94.0544 13.0906 94.0544 13.1255C94.0544 13.7145 94.0534 14.3035 94.0576 14.8924C94.0576 14.9717 94.0152 14.9633 93.9674 14.9633C93.4111 14.9633 92.8559 14.9633 92.2996 14.9633C91.8187 14.9633 91.3378 14.9633 90.8569 14.9633H90.7295V14.9622Z" fill="#949EB7"/>
</svg>
